<?xml version="1.0" encoding="utf-8"?>
<!-- Generator: Adobe Illustrator 26.2.0, SVG Export Plug-In . SVG Version: 6.00 Build 0)  -->
<svg version="1.1" id="Layer_1" xmlns="http://www.w3.org/2000/svg" xmlns:xlink="http://www.w3.org/1999/xlink" x="0px" y="0px"
	 viewBox="0 0 400 400" style="enable-background:new 0 0 400 400;" xml:space="preserve">
<g>
	<path d="M331.19,330.42c-23.93-0.78-45.82-8.29-66.59-19.47c-7.9-4.26-15.37-9.32-23.13-13.84c-1.11-0.65-3.38-0.99-4.12-0.34
		c-18.97,16.57-41.87,24.45-65.93,29.13c-42.85,8.32-85.77,8.45-128.45-1.44c-21.18-4.91-40.84-13.32-57.22-28.08
		c-13.38-12.05-22.57-26.6-25.3-44.71c-0.26-1.7,0.28-3.53,0.51-5.28c0.49-3.77,2.64-8.35,1.23-11.15
		c-4.1-8.18-1.14-15.88-0.66-23.89c0.56-9.5,1.24-19.28-0.37-28.55c-3.07-17.77,1.88-32.62,13.42-45.63
		c13.02-14.67,30.12-22.85,48.41-28.68C55.94,97.98,89.9,95.37,124.21,96.99c14.28,0.67,28.5,2.7,42.76,3.99
		c1.33,0.12,3.09-0.19,4.06-1c10.1-8.53,19.95-16.94,25.65-29.69c7.33-16.4,21.85-24.06,39.02-26.87
		c17.45-2.85,34.39,0.36,50.42,6.82c61.77,24.9,111.54,64.46,145.83,122.16c8.4,14.14,13.82,29.57,13.85,46.37
		c0.03,17.44-7.33,30.8-21.59,41.04c-5.72,4.11-11.08,9.55-12.26,17.43c-0.21,1.41-0.77,3.31-1.82,3.98
		c-7.3,4.71-8.78,15.04-17.68,18.17c-0.78,0.28-1.41,1.39-1.83,2.25c-8.35,17.13-24.1,22.99-41.09,26.66
		C343.54,329.6,337.31,329.75,331.19,330.42z M-23.09,231.94c0.06-0.08,0.11-0.17,0.17-0.25c-0.12,0.07-0.23,0.14-0.35,0.2
		c-1.7-1.43-3.33-2.95-5.13-4.25c-0.5-0.37-1.46-0.1-2.22-0.13c0.53,0.72,0.91,1.75,1.62,2.1
		C-27.09,230.55-25.05,231.19-23.09,231.94z M180.5,125.71c-0.08-0.27-0.17-0.53-0.25-0.8c0.12,0.24,0.23,0.48,0.35,0.72
		c1.16,3.07,1.81,6.48,3.56,9.17c6.45,9.87,13.26,19.51,19.96,29.21c0.85,1.23,1.8,2.4,2.82,3.5
		c15.49,16.72,31.14,33.28,46.42,50.18c7.49,8.29,15.83,15.15,26.02,19.8c9.45,4.31,18.11,9.77,25.57,17.16
		c5.86,5.81,12.96,9.7,21,12.08c3.74,1.11,7.44,3.11,10.51,5.53c5.31,4.2,11.24,6.31,17.77,7.28c7.27,1.09,14.43,2.5,20.59,6.99
		c1.13,0.82,2.74,1.12,4.18,1.33c3.86,0.55,7.74,1.09,11.63,1.27c1.23,0.06,2.55-0.99,3.76-1.66c0.28-0.15,0.28-0.81,0.4-1.24
		c-1.1-0.14-2.25-0.54-3.29-0.37c-8.21,1.37-15.11-1.21-22.14-5.5c-7.3-4.46-15.59-7.27-23.35-11c-6.41-3.09-12.7-6.45-19-9.76
		c-6.89-3.61-13.43-8.13-20.66-10.77c-10.17-3.72-18.32-9.64-25.88-17.22c-8.08-8.11-16.66-15.89-25.88-22.65
		c-8.36-6.14-15.28-13.14-21.04-21.69c-3.48-5.17-7.44-10.66-12.51-13.99c-11.66-7.64-19.99-17.26-24.11-30.67
		C194.38,134.33,187.22,130.15,180.5,125.71z M248.03,51.44c-15.56,0.13-28.49,3.87-38.58,14.8c-7.3,7.9-9.48,17.18-4.73,26.72
		c6.21,12.47,12.52,25.12,20.64,36.36c31.56,43.69,72.39,76.97,119.34,102.9c18.72,10.34,38.46,18.29,59.76,21.7
		c9.73,1.56,17.39-1.6,23.67-9.45c8.25-10.31,10.1-21.88,8.15-34.36c-2.68-17.14-10.3-32.33-20.05-46.36
		c-30.96-44.56-71.87-77.32-120.8-100.23C280.1,56.34,263.95,51.79,248.03,51.44z M112.93,222.16c14.45-0.96,28.9-1.9,43.35-2.88
		c3.58-0.24,5.27-0.88,2.87-5.25c-4.08-7.4-7.78-15.13-10.58-23.09c-6.95-19.76-7.92-39.74,0.05-59.56
		c0.89-2.22,2.52-4.23,4.13-6.04c3.19-3.59,6.79-6.83,9.89-10.48c2.96-3.49,2.37-4.76-1.98-5.35c-37.9-5.11-75.74-5.52-113.39,2.03
		c-20.39,4.09-39.99,10.38-56.79,23.26c-10.35,7.93-17.84,17.86-20.29,31.05c-2.59,13.9,1.71,23.36,14.18,29.79
		c6.34,3.27,12.88,6.28,19.56,8.79C39.05,217.61,75.68,221.42,112.93,222.16z M109.54,323.45c29.12-0.35,57.84-3.24,85.53-12.96
		c11.85-4.16,23-9.64,32.87-17.56c2.4-1.93,3.26-3.12,0.08-5.32c-5.33-3.69-10.23-8.01-15.52-11.76c-1.33-0.94-3.62-1.28-5.25-0.93
		c-16.06,3.46-31.91,8.54-48.14,10.5c-63.7,7.7-126,3.31-184.94-25.03c-0.7-0.34-1.51-0.44-2.26-0.65c0.08,0.94-0.11,2.02,0.29,2.8
		c2.39,4.74,4.49,9.71,7.47,14.07c11.43,16.76,27.86,26.87,46.44,33.9C52.99,320.69,81.12,323.01,109.54,323.45z M331.59,321.53
		c10.62,0.08,20.9-1.59,30.68-5.86c1.41-0.61,2.6-1.73,3.89-2.61c-1.37-0.49-2.71-1.07-4.11-1.47
		c-91.2-26.31-159.43-81.28-205.03-164.44c-0.48-0.87-0.87-1.8-1.37-2.66c-0.24-0.4-0.66-0.69-1-1.02
		c-0.32,0.46-0.85,0.88-0.92,1.37c-0.68,4.44-1.71,8.87-1.82,13.33c-0.61,23.69,8.08,44.46,21.7,63.09
		c28.38,38.83,64.91,68.05,108.3,88.6C297.53,317.25,314.12,321.49,331.59,321.53z M399,276.83c0.22,0.56,0.44,1.11,0.67,1.67
		c1.12-1.14,3.33-2.48,3.16-3.38c-0.79-4.21,1.97-6.51,4.17-9.12c1.33-1.57,2.18-2.07-0.84-2.78c-10.82-2.55-21.8-4.8-32.23-8.55
		c-38.47-13.81-71.69-36.45-102.27-63.06c-31.94-27.79-59.88-58.81-75.86-98.93c-0.16-0.4-1.74-0.77-2.06-0.48
		c-3.33,2.97-6.59,6.02-9.72,9.2c-0.7,0.71-1.45,2.41-1.1,2.97c3.73,5.95,2.94,14.24,9.73,18.6c7.37,4.72,11.68,11.7,14.16,19.92
		c2.47,8.17,7.25,14.5,14.56,18.94c8.76,5.31,14.98,12.93,20.56,21.41c3.42,5.19,7.53,10.43,12.51,13.99
		c12.4,8.85,24.17,18.28,34.22,29.76c5.19,5.93,11.76,9.44,18.92,12.54c8.32,3.6,16.15,8.36,24.16,12.65
		c4.83,2.58,9.51,5.46,14.44,7.82c6.71,3.21,13.63,5.98,20.4,9.08c5.4,2.48,10.48,6.09,16.12,7.5
		C387.85,277.84,393.55,276.83,399,276.83z M375.23,306.33c2.08-0.47,7.99-7.42,7.21-8.97c-0.18-0.36-1.11-0.62-1.61-0.52
		c-5.43,1.1-9.57-1.62-13.91-4.23c-2.5-1.51-5.42-2.67-8.29-3.16c-10.75-1.82-21.28-3.87-29.73-11.66c-1.74-1.6-4.35-2.47-6.72-3.16
		c-9.33-2.71-16.96-8.11-24.43-14.15c-6.54-5.28-13.49-10.34-20.94-14.17c-11.73-6.04-21.93-13.59-30.77-23.42
		c-15.02-16.7-30.56-32.92-45.81-49.42c-2.25-2.43-4.22-5.14-6.11-7.86c-5.41-7.77-10.83-15.53-16.01-23.45
		c-2.34-3.58-4.23-7.47-6.11-11.32c-0.79-1.62-0.8-3.6-1.56-5.24c-0.49-1.06-0.22-4.8-3.12-1.59c-1.22,1.35-2.26,3-3.75,3.92
		c-3.95,2.43-3.98,4.95-1.9,8.98c39.27,75.83,98.96,128.6,178.85,158.51C351.86,299.65,363.65,302.71,375.23,306.33z M137.54,246.64
		c0.06,0.59,0.12,1.19,0.18,1.78c4.63-1.14,9.31-2.08,13.87-3.47c5.08-1.54,9.97-3.73,15.08-5.18c7.38-2.09,7.47-1.94,2.78-8.1
		c-1.61-2.12-2.57-4.5-6.46-4.18c-17.89,1.45-35.83,3.37-53.74,3.29c-47.17-0.23-93.32-5.93-135.35-29.9
		c-0.39-0.22-2.02,0.62-2.12,1.14c-0.77,4.22-1.39,8.46-1.84,12.72c-0.11,1,0.33,2.81,0.94,3.02c6.92,2.38,11.79,9.49,20.25,8.44
		c7.92-0.99,15.25,1.25,21.69,5.84c7.72,5.5,16.16,7.36,25.5,6.42c9.4-0.94,18.54,0.34,27.43,3.78c7.68,2.98,15.69,3.48,24,3.36
		C105.65,245.36,121.6,246.23,137.54,246.64z M110.47,279.77c29.23-0.11,58.16-2.72,86.4-10.74c6.16-1.75,6.26-1.99,1.45-6.13
		c-1.64-1.41-2.35-4.91-6.28-2.73c-9.84,5.47-20.59,6.77-31.82,6.65c-9.23-0.1-18.48,1.29-27.72,2.08
		c-9.08,0.79-18.22,2.79-27.22,2.24c-14.4-0.88-28.74-3.22-43.04-5.32c-9.69-1.42-19.29-3.43-28.91-5.29
		c-5.66-1.1-11.33-2.26-16.9-3.73c-4.16-1.1-8.11-3.05-12.28-4.07c-10.3-2.53-21.06-3.7-29.42-11.32c-0.44-0.4-2.51,0.13-2.51,0.21
		c0.04,3.45-1.49,7.33,3.39,9.24c4.78,1.87,9.25,4.56,13.99,6.56C28.26,273.7,68.82,279.67,110.47,279.77z M157.05,256.74
		c0.12,0.77,0.23,1.53,0.35,2.3c8.28-1.38,16.68-2.29,24.8-4.31c6.2-1.54,6.27-2.98,1.14-6.86c-1.36-1.03-3.8-1.46-5.49-1.07
		c-7.59,1.79-15.01,4.31-22.63,5.91c-6.74,1.42-13.66,2.83-20.49,2.76c-14.46-0.14-28.94-2.11-43.36-1.66
		c-10.58,0.33-20.36-1.39-30.38-4.21c-6.9-1.94-14.41-2.96-21.55-2.57c-10.2,0.57-19.6-0.58-28.11-6.41
		c-6.84-4.69-14.21-7.08-22.59-6.21c-2.36,0.24-4.8-0.24-7.21-0.4c2.34,1.79,4.66,3.6,7.04,5.34c0.52,0.38,1.2,0.57,1.84,0.77
		c11.76,3.57,23.51,7.14,35.28,10.66c1.42,0.43,2.93,0.61,4.41,0.82c20.07,2.85,40.2,5.39,60.21,8.63
		c14.46,2.34,28.63,3.29,43.08-0.43C141.03,257.84,149.15,257.7,157.05,256.74z M177.77,115.17c-0.88-1.09-1.81-2.26-2.75-3.43
		c-0.22,0.4-0.72,1-0.61,1.17c0.89,1.3,1.89,2.52,2.86,3.76C177.41,116.28,177.54,115.88,177.77,115.17z"/>
</g>
</svg>
