<?xml version="1.0" encoding="utf-8"?>
<!-- Generator: Adobe Illustrator 26.2.0, SVG Export Plug-In . SVG Version: 6.00 Build 0)  -->
<svg version="1.1" id="Layer_1" xmlns="http://www.w3.org/2000/svg" xmlns:xlink="http://www.w3.org/1999/xlink" x="0px" y="0px"
	 viewBox="0 0 400 400" style="enable-background:new 0 0 400 400;" xml:space="preserve">
<g>
	<path d="M227.61,148.83c6.71,4.84,12.31,10.38,13.94,18.8c1.2,6.21-0.19,11.93-4.05,16.94c-4.95,6.43-11.53,10.57-18.97,13.66
		c-10.63,4.43-21.66,5.97-33.03,5.16c-12.07-0.87-23.62-3.76-34.1-10.06c-4.98-2.99-9.09-6.92-11.89-12.08
		c-4.19-7.73-3.31-16.93,2.22-23.8c2.76-3.42,6.21-5.98,9.89-8.35c6.55-4.22,13.73-6.67,21.29-8.18c2.34-0.47,4.73-0.7,7.09-1.07
		c0.46-0.07,0.93-0.2,1.34-0.41c5.25-2.78,10.48-5.6,15.74-8.36c1.02-0.53,2.12-0.92,3.21-1.28c0.37-0.12,0.88-0.07,1.26,0.07
		c2.97,1.13,5.91,2.37,8.9,3.44c4.42,1.59,8.89,3.06,13.33,4.59c0.6,0.21,1.21,0.42,1.78,0.69c1.42,0.67,1.64,1.65,1.6,3.18
		c-0.05,1.8-0.93,3.67,0.24,5.47C227.68,147.71,227.56,148.41,227.61,148.83z M203.25,153.01c-0.26-0.38-0.52-0.76-0.77-1.13
		c-0.06,0.03-0.12,0.07-0.19,0.1c0.09,0.35,0.19,0.7,0.27,1.03c0.26,0,0.47,0,0.68,0c0.05-0.35,0.1-0.7,0.15-1.04
		c-0.13,0-0.26,0.01-0.4,0.01C203.08,152.31,203.17,152.66,203.25,153.01z M216.59,140.89c0,0.39,0,0.77,0,1.16
		c0.13-0.02,0.26-0.04,0.39-0.05C216.85,141.62,216.72,141.26,216.59,140.89c-0.2-0.03-0.5-0.16-0.59-0.08
		c-0.15,0.14-0.16,0.42-0.22,0.65c0.09,0.03,0.18,0.07,0.26,0.1C216.23,141.34,216.41,141.11,216.59,140.89z M193.18,148.01
		c0.01-0.14,0.02-0.27,0.02-0.28c-0.37-0.1-0.64-0.18-0.92-0.25c-0.15-0.48-0.3-0.95-0.48-1.52c-0.22,0.29-0.45,0.58-0.74,0.96
		c0.44,0.26,0.78,0.46,1.11,0.65c0.05,0.18,0.1,0.36,0.14,0.51c0.35-0.04,0.62-0.07,0.89-0.1c0.13,0.28,0.27,0.56,0.4,0.83
		c-1.06,0.58-2.11,1.17-3.17,1.75c-0.03-0.07-0.07-0.14-0.1-0.21c0.57-0.65,1.14-1.29,1.65-1.86c-0.54-0.61-0.92-1.04-1.23-1.4
		c-2.66-0.52-5.36-2.28-7.86,0.28c0.7-0.74,1.39-1.48,1.95-2.07c-0.53-0.9-0.88-1.5-1.23-2.11c0.54,0.47,1.08,0.93,1.92,1.65
		c-0.33-0.53-0.44-0.78-0.61-0.96c-0.19-0.2-0.44-0.33-0.53-0.4c-0.05-0.55-0.07-0.89-0.1-1.23c-0.1-0.02-0.2-0.05-0.29-0.07
		c-0.12,0.35-0.23,0.7-0.35,1.04c-0.32-0.04-0.64-0.16-0.94-0.12c-0.79,0.11-1.58,0.29-2.45,0.46c-0.32-0.49-0.54-0.82-0.74-1.14
		c-2.77,0.17-4.43,2.2-6.9,3.33c2.96,1.77,5.18,0.06,7.57-0.62c-1.18,0.59-2.36,1.19-3.46,1.74c0.48,0.82,0.95,1.62,1.43,2.44
		c2.15,0.3,4.45,0.62,6.47,0.9c0.26,0.89,0.55,1.85,0.76,2.58c1.45,0.42,2.74,0.76,4,1.16c1.99,0.63,3.83-0.07,5.75-0.65
		c-0.56,0.6-1.07,1.13-1.62,1.72c0.31,0.26,0.42,0.36,0.54,0.45c1.63,1.13,1.61,2.18-0.11,3.23c-1.53,0.93-3.1,1.78-4.65,2.67
		c0.33-0.32,0.64-0.66,0.99-0.95c0.81-0.66,1.64-1.3,2.35-1.86c-0.55-0.88-0.97-1.55-1.45-2.32c-1.78,0.65-3.51,0.12-5.25-0.88
		c-1.23-0.71-2.56-0.63-3.84,0.19c-0.85,0.55-1.83,0.91-2.75,1.36c0-0.03-0.01-0.05-0.01-0.08c1.1-0.77,2.19-1.55,3.22-2.28
		c-0.33-1.07-0.55-1.78-0.71-2.3c-2.82-0.47-5.52-2.42-8.23-0.13c0.63-0.58,1.25-1.16,1.72-1.59c-0.61-0.78-1.13-1.45-1.71-2.2
		c-0.49-0.13-1.16-0.38-1.86-0.47c-1.17-0.15-2.48-0.55-3.51-0.2c-2.36,0.79-4.6,1.97-6.95,3.02c2.28,1.97,4.33,0.94,6.46-0.01
		c-0.77,0.64-1.54,1.28-2.22,1.84c0.42,0.8,0.71,1.34,0.86,1.63c1.56,0.24,3.04,0.28,4.4,0.72c2.04,0.67,3.9,0.52,5.78-0.41
		c1.16-0.57,2.34-1.1,3.51-1.64c0.03,0.06,0.07,0.12,0.1,0.19c-1.72,1-3.45,1.99-5.05,2.92c0.63,0.89,1.07,1.51,1.37,1.94
		c0.92,0.3,1.84,0.39,2.48,0.87c1.07,0.79,2.12,1.02,3.36,0.6c0.86-0.3,1.73-0.59,2.6-0.88c0.04,0.07,0.07,0.14,0.11,0.21
		c-0.69,0.57-1.39,1.14-2.01,1.66c0.79,1.2,1.46,2.19,2.2,3.32c-0.1,0.01,0.1-0.01,0.29-0.03c-1.38,0.76-2.76,1.51-4.14,2.27
		c0.63-1.65,0.79-3.22-0.67-4.56c-0.05-0.05-0.07-0.14-0.1-0.21c-2.77-1.26-5.53-1.3-8.33,0.26c0.69-0.84,1.23-1.51,1.68-2.05
		c-0.76-0.57-1.38-1.04-2-1.51c-0.64-0.29-1.74-0.2-2.62-0.6c-2.51-1.13-4.83-1.25-7.04,0.6c-0.07,0.06-0.22,0.03-0.34,0.04
		l0.03,0.02c0.9-0.98,1.8-1.95,2.68-2.9c-0.35-0.57-0.67-1.09-0.82-1.33c-1.13-0.22-2.07-0.41-3.01-0.58
		c-0.51-0.09-1.02-0.27-1.52-0.23c-2.55,0.23-4.86,1.11-6.95,2.61c-0.32,0.23-0.7,0.35-1.09,0.54c0.47,0.44,0.54,0.55,0.64,0.6
		c4.9,2.28,9.81,4.57,14.72,6.83c0.58,0.27,1.18,0.49,1.79,0.66c4.04,1.08,8.06,2.23,11.59,4.59c0.68-0.31,1.39-0.55,2.03-0.93
		c3.71-2.18,7.36-4.48,11.12-6.57c5.76-3.21,11.64-6.19,17.36-9.46c4.91-2.81,9.68-5.87,14.47-8.88c0.59-0.37,0.95-1.09,1.42-1.65
		l-0.01,0.01c-0.12-0.45-0.23-0.9-0.35-1.35c-0.1-0.16-0.16-0.41-0.3-0.46c-1.54-0.59-3.06-1.42-4.8-0.65
		c-1.05,0.47-2.15,0.86-3.18,1.37c-0.33,0.17-0.53,0.6-0.59,0.68c0.86,1.08,1.52,1.91,2.22,2.79c1.22-0.6,2.69-1.28,4.11-2.06
		c0.9-0.49,1.71-1.13,2.56-1.71c-0.4,0.51-0.69,1.19-1.21,1.49c-2.95,1.67-5.95,3.25-8.93,4.87c0.3-0.49,0.54-1.03,0.9-1.46
		c0.63-0.76,0.48-1.35-0.23-1.93c-0.54-0.44-1.06-0.9-1.52-1.29c-0.82-0.18-1.67-0.22-2.4-0.55c-1.6-0.72-3.13-0.74-4.72-0.06
		c-0.69,0.29-1.42,0.49-2.13,0.73c0.79-0.56,1.58-1.11,2.54-1.79c-0.94-0.5-1.58-0.84-2.14-1.14c-0.08-0.59-0.13-0.99-0.18-1.34
		c-0.99,0.73-1.92,1.42-2.84,2.1c0.52,0.83,0.97,1.56,1.46,2.35c0.36-0.07,0.78-0.14,1.2-0.21c2.3,1.32,4.59,2.79,7.22,0.62
		c-0.55,0.46-1.1,0.92-1.76,1.47c1.29,0.89,2.82,1.51,2.47,3.44c0.85-0.38,1.52-0.68,2.18-0.98c-1.98,1.21-3.97,2.42-5.95,3.63
		c-0.03-0.03-0.06-0.07-0.1-0.1c0.67-0.6,1.41-1.15,1.99-1.83c0.6-0.71,0.38-1.34-0.39-1.91c-0.62-0.45-1.1-1.08-1.47-1.46
		c-0.89-0.17-1.84-0.15-2.58-0.52c-1.36-0.68-2.66-1.02-4.12-0.38c-0.27,0.12-0.61,0.09-0.97,0.14c0.84-1.63,0.84-1.63-0.32-3.11
		c-1.84-0.5-3.4-0.92-4.69-1.27c-1.46,0.77-2.62,1.38-3.78,1.99c-0.04-0.08-0.09-0.15-0.13-0.23c0.67-0.62,1.33-1.23,2.04-1.88
		c-0.67-0.78-1.19-1.38-1.72-2c-0.43,0.09-0.85,0.17-1.34,0.27c-0.32-0.28-0.6-0.66-0.98-0.83c-0.55-0.25-1.27-0.62-1.73-0.45
		c-1.5,0.56-2.92,1.35-4.4,2.07c1.82,2.42,3.59,0.02,5.47,0.22c-0.56,0.5-1.05,0.94-1.42,1.28c0.56,0.77,1.07,1.47,1.63,2.25
		c2.76,0.14,5.78,1.04,8.49-1.21c0.01,0.12,0.03,0.25,0.04,0.37c-1.07,0.67-2.14,1.34-3.23,2.03c0.58,0.93,1,1.59,1.34,2.13
		c1.11,0.19,2.21,0.17,3.13,0.57c1.7,0.73,3.19,2.12,5.31,1.42c-0.38,0.24-0.76,0.48-1.25,0.8c0.86,0.81,1.63,1.53,2.39,2.24
		c-0.06,0.05-0.11,0.11-0.17,0.16c-0.21-0.15-0.41-0.3-0.62-0.46c-0.12,0.2-0.21,0.35-0.37,0.61c-0.97-0.73-1.9-1.43-3.04-2.29
		c-0.32,0.5-0.68,1.06-1.06,1.64c0.84,0.56,1.45,0.98,2.09,1.41c-0.13,0.67-0.24,1.25-0.35,1.87c-0.66,0.4-1.33,0.79-2.27,1.35
		c0.37-0.82,0.6-1.33,0.88-1.93c-1.03-0.63-2.7-0.45-2.49-1.81c-1.17-0.41-2.1-0.74-3.03-1.05c-1.07-0.35-2.14-0.69-3.21-1.04
		c0.07-0.45,0.15-0.91,0.22-1.36c-0.1-0.02-0.19-0.04-0.29-0.06C193.41,147.61,193.3,147.81,193.18,148.01z M223.84,162.8
		c0.68-0.26,1.36-0.52,2.04-0.78c-0.07-0.14-0.14-0.28-0.22-0.42c-0.6,0.41-1.19,0.82-1.79,1.24c-0.51,0.27-1.02,0.54-1.52,0.81
		c0.08,0.11,0.16,0.22,0.24,0.33C223.01,163.58,223.42,163.19,223.84,162.8z M197.48,148.89c-0.38-0.06-0.76-0.13-1.14-0.19
		c-0.02,0.15-0.03,0.3-0.05,0.46c0.55,0.05,1.09,0.11,1.64,0.16c0.18-0.03,0.36-0.05,0.54-0.08c-0.01-0.14-0.03-0.28-0.04-0.41
		C198.11,148.85,197.79,148.87,197.48,148.89z M202.09,171.92c-0.22,0.18-0.45,0.36-0.67,0.54c-0.22,0.08-0.44,0.15-0.65,0.25
		c-3.48,1.6-6.97,3.2-10.45,4.81l0.02,0.02c-0.01-0.14-0.01-0.27-0.02-0.35c-3.28,0.54-5.83,2.4-8.14,4.64
		c-0.01-0.24-0.01-0.47-0.02-0.71c0.27-0.4,0.55-0.79,0.82-1.19c-0.1-0.07-0.2-0.14-0.3-0.22c-0.25,0.16-0.5,0.33-0.77,0.5
		c0.11,0.34,0.19,0.63,0.28,0.92c-0.57,0.32-1.13,0.65-1.7,0.97c0.06,0.11,0.11,0.22,0.17,0.33c0.41-0.16,0.83-0.32,1.24-0.48
		c-0.16,0.35-0.25,0.76-0.49,1.04c-0.17,0.2-0.54,0.23-0.83,0.34c0,0,0.01,0.01,0.01,0.01c0.04-0.06,0.09-0.12,0.12-0.18
		c0.01-0.02-0.02-0.09-0.03-0.1c-0.37-0.04-0.8,0.05-1.09-0.12c-2.18-1.31-4.31-2.59-6.88-3.19c-2.13-0.49-4.11-1.64-6.16-2.5
		c0.32,0,0.63,0,1.04,0c-0.33-0.39-0.56-0.68-0.8-0.96c0.06-0.03,0.13-0.07,0.19-0.1c0.09-0.02,0.18-0.04,0.27-0.07
		c0.46,0.21,0.93,0.43,1.39,0.63c0.81,0.36,1.63,0.7,2.45,1.05c0.04-0.1,0.09-0.19,0.13-0.29c-0.83-0.4-1.67-0.8-2.5-1.2
		c0.06-0.11,0.12-0.22,0.17-0.34c1.49,0.82,2.97,1.65,4.46,2.47c0.07,0.86,0.48,0.88,1.09,0.46c0.66,0.1,1.31,0.19,1.97,0.29
		c0.35,0.33,0.71,0.67,1.06,1c-0.92-0.21-1.83-0.41-2.75-0.62c-0.02,0.08-0.03,0.17-0.05,0.25c0.92,0.34,1.84,0.69,2.89,1.08
		c-0.07-0.26-0.1-0.39-0.14-0.52c0.6,0.22,0.17,1.62,1.35,1.19c0.23,0.25,0.45,0.51,0.91,1.02c0-0.66,0-0.96,0-1.39
		c-0.38,0.13-0.62,0.22-0.86,0.3c0.32-0.22,0.65-0.45,1.07-0.75c-0.05-0.34-0.1-0.74-0.15-1.14c0.07-0.62,0.14-1.25,0.25-2.24
		c3.75-1.62,7.79-3.38,11.76-5.1c0.2,0.21,0.31,0.33,0.4,0.42c0.84-0.76,1.52-1.57,2.38-2.11c2.96-1.88,5.99-3.65,8.96-5.51
		c0.69-0.43,1.25-1.07,1.87-1.62c-0.06-0.08-0.12-0.16-0.18-0.24c7.29-4.14,14.58-8.28,21.97-12.48c-0.3-0.26-0.48-0.42-0.57-0.5
		c0.32-1.31,0.91-2.55-0.36-3.65c-0.3,0.07-0.6,0.13-0.9,0.2c0.29-0.23,0.58-0.47,0.97-0.78c0.03-0.19,0.07-0.52,0.14-0.96
		c-1.77,1.09-3.43,2.08-5.07,3.12c-1.64,1.04-3.27,2.09-4.86,3.22c-1.45,1.03-2.78,2.24-4.26,3.22c-1.13,0.75-2.42,1.28-3.63,1.9
		c-0.11,0.05-0.23,0.08-0.34,0.12c0.02-0.12,0.04-0.23,0.09-0.5c-2.09,1.12-4.11,2.17-6.09,3.28c-2.73,1.54-5.45,3.1-8.14,4.7
		c-1.79,1.06-3.95,1.55-5.27,3.34c0,0.04,0,0.09-0.01,0.13c-0.81,0.39-1.64,0.73-2.43,1.17c-1.32,0.72-2.57,1.56-3.92,2.23
		c-1.2,0.6-1.93,1.44-2.01,2.81c-0.01,0.18-0.19,0.36-0.29,0.54c-0.05-0.03-0.1-0.06-0.15-0.09c0.08-0.72,0.16-1.44,0.23-2.06
		c-1.57-0.65-2.96-1.23-4.34-1.81c-0.05-0.25-0.03-0.67-0.17-0.74c-1.33-0.64-2.7-1.22-4.05-1.82c-0.03,0.08-0.07,0.16-0.1,0.23
		c1.31,0.68,2.63,1.37,3.94,2.05c-0.31-0.08-0.63-0.13-0.92-0.25c-5.74-2.3-11.49-4.6-17.22-6.94c-1.07-0.44-2.09-1.03-3.13-1.55
		c-0.27-0.22-0.54-0.44-0.81-0.65c-0.54-0.5-1.09-0.99-1.75-1.6c-0.04,0.42-0.06,0.65-0.09,0.88c0,0,0.05-0.04,0.05-0.04
		c-0.09-1.04-0.18-2.09-0.27-3.13c0.36,0.46,0.73,0.92,1.09,1.39c0.12-0.12,0.23-0.24,0.35-0.35c-0.49-0.33-0.99-0.66-1.48-1
		c-0.18-1.39,0.26-2.05,1.94-2.89c3.03-1.52,6.07-3.01,9.08-4.55c5.53-2.84,11.46-4.89,16.54-8.59c0.15-0.11,0.28-0.25,0.63-0.58
		c-2.2,0.36-4.12,0.63-6.03,1.01c-8.37,1.65-16.23,4.56-23.31,9.43c-3.51,2.42-6.55,5.29-9.01,8.78c-4.8,6.79-5.09,14.64-0.76,21.69
		c3.73,6.07,9.15,10.15,15.46,13.18c8.32,3.99,17.12,6.23,26.28,7.22c6.75,0.74,13.49,0.58,20.2-0.35
		c7.14-0.99,13.87-3.34,20.33-6.44c5.6-2.68,10.51-6.32,14.32-11.29c3.39-4.43,4.73-9.4,3.92-14.97c-0.71-4.88-3.16-8.84-6.47-12.3
		c-2.02-2.12-4.28-4.01-6.43-6.01c-0.12,0.09-0.25,0.18-0.37,0.27c0.04,1.75-1.43,3.41-0.46,5.23c0,0.87,0,1.74,0,2.61l0.02-0.02
		c-1.24,0.71-0.17,1.22,0.24,1.55c4.47,3.52,6.18,10.86,3.17,16.38c-2.01,3.68-5.04,6.31-8.49,8.37c-3.35,2.01-6.95,3.71-10.61,5.08
		c-8.94,3.33-18.24,4.06-27.7,3.27c-0.75-0.06-1.53,0.26-2.3,0.35c-1.13,0.12-2.3,0.43-3.38,0.24c-3.66-0.65-6.59-3.2-10.39-3.77
		c-3.83-0.58-7.38-2.35-10.7-4.44c-3.65-2.29-6.84-4.96-8.45-9.14c-1.95-5.04-1.85-9.89,1.18-14.51c0.3-0.46,0.73-0.83,1.1-1.24
		c-5.1,6.95-3.92,13.44,1.09,20.05c0.27-0.9,0.44-1.5,0.51-1.75c-0.06-0.94-0.05-1.53-0.14-2.1c-0.08-0.53-0.11-1.17-0.41-1.56
		c-1.3-1.67-1.37-2.2-0.41-3.91c0.19-0.94,0.38-1.87,0.57-2.81c0,0.3,0,0.6,0,0.94c0.62,0.04,1.15,0.07,1.83,0.11
		c-0.37,0.13-0.58,0.2-0.83,0.29c0.91,0.47,1.75,0.91,2.6,1.36c-0.47-0.04-0.94-0.07-1.4-0.11c0.36,0.36,0.75,0.61,1.18,0.75
		c1.11,0.36,2.23,0.68,3.35,1.02c0.45,0.4,0.89,0.81,1.34,1.21c0.18,0.22,0.32,0.53,0.55,0.65c1.66,0.85,3.34,1.66,5.02,2.48
		c-1.78,0.19-3.06-0.96-4.48-1.7c-2.55-1.34-5.1-2.68-7.65-4.03c-0.05-0.03-0.06-0.12-0.09-0.18c0.16-0.06,0.31-0.12,0.84-0.31
		c-0.98-0.19-1.57-0.31-2.07-0.4c-0.26,0.96-0.5,1.86-0.8,2.98c0.24,0.28,0.65,0.75,1.13,1.3c0.35,1.86-0.33,4.27,2.25,5.28
		c0.36,0.15,0.72,0.31,1.39,0.59c-0.24-0.57-0.37-0.86-0.48-1.11c-0.41,0.23-0.68,0.38-0.95,0.54c-0.21-0.27-0.43-0.54-0.63-0.82
		c-0.34-0.47-0.66-0.94-1.1-1.56c1.75,0.83,3.21,1.53,4.75,2.27c-0.21,0.14-0.38,0.25-0.65,0.44c0.53,0.51,1.05,1.01,1.56,1.51
		l0.04-0.04c-1.49-0.43-2.97-0.86-4.48-1.3c0,0.04,0.02,0.21,0.04,0.37c-0.32-0.52-0.64-1.05-1.06-1.72
		c-0.35,0.74-0.56,1.18-0.91,1.91c0.82-0.08,1.4-0.14,1.98-0.2c1.15,0.65,2.31,1.3,3.48,1.97c-0.18,0.12-0.31,0.21-0.69,0.47
		c0.84,0.42,1.5,0.76,2.17,1.1c0.05-0.1,0.11-0.19,0.16-0.29c-0.16-0.25-0.33-0.49-0.52-0.79c1.19,0.42,2.25,0.79,3.32,1.16
		c-0.02,0.07-0.05,0.14-0.07,0.2c-0.7-0.15-1.39-0.31-2.09-0.46c0.21,0.43,0.51,0.69,0.86,0.86c0.9,0.42,1.81,0.81,2.72,1.19
		c2.55,1.05,5.1,2.09,7.66,3.14c0.07-0.02,0.13-0.06,0.17-0.12c0.68,0.24,1.36,0.49,2.04,0.73c0.06-0.12,0.12-0.23,0.18-0.35
		c-1.03-0.6-2.03-1.28-3.1-1.79c-1.35-0.65-2.77-1.16-4.16-1.73l0.03,0.03c0.44-0.12,0.95-0.43,1.32-0.32
		c1.78,0.56,3.53,1.24,5.29,1.87c-0.01,0.06-0.03,0.11-0.04,0.17c-0.34,0-0.67,0-1.01,0c-0.02,0.08-0.04,0.16-0.06,0.25
		c0.42,0.13,0.84,0.26,1.26,0.4c0.11,0.2,0.18,0.45,0.34,0.6c0.9,0.84,1.83,1.66,2.98,2.69c0.44,0.08,1.19,0.21,1.94,0.34
		c0.25,0.17,0.49,0.34,0.74,0.52c0.09-0.1,0.18-0.21,0.27-0.31c-0.33-0.3-0.66-0.59-0.99-0.89c-0.06,0.06-0.12,0.12-0.18,0.17
		c0.07,0.18,0.13,0.37,0.2,0.55c-0.76-0.37-1.53-0.74-2.3-1.12c0.18-0.08,0.36-0.15,0.56-0.23c-0.44-0.41-0.84-0.77-1.23-1.13
		c1.49,0.67,2.98,1.34,4.47,2.01c0.07-0.15,0.15-0.29,0.22-0.44c-3.44-1.85-6.88-3.7-10.32-5.55c0.01-0.04,0.02-0.07,0.04-0.11
		c3.25,1.29,6.49,2.58,9.79,3.89c0.19-0.37,0.31-0.6,0.39-0.75c-0.88-0.37-1.7-0.72-2.53-1.07l-0.02,0.03
		c1.17,0.79,2.18,0.4,3.22-0.58c-0.19,0.48-0.31,0.78-0.59,1.48c1.16-0.64,1.98-1.08,2.8-1.53l-0.04,0.04
		c0.57-0.25,1.14-0.5,1.72-0.74c3.22-1.34,6.01-3.37,8.8-5.42c2.17-1.6,4.56-2.91,6.85-4.34c0.1-0.06,0.24-0.05,0.34-0.1
		c0.89-0.5,1.79-1,2.66-1.53c0.67-0.41,1.28-0.92,1.96-1.32c1.28-0.74,2.57-1.48,3.89-2.14c0.6-0.3,1.31-0.35,1.93-0.6
		c0.49-0.19,0.97-0.46,1.39-0.78c0.98-0.73,1.93-1.51,2.89-2.27c0.41-0.4,0.82-0.81,1.23-1.21c1.09-0.77,2.15-1.6,3.28-2.31
		c1.94-1.23,3.93-2.4,5.89-3.61c0.27-0.17,0.46-0.46,0.69-0.69c-0.07-0.08-0.14-0.15-0.2-0.23c-0.61,0.37-1.22,0.74-1.83,1.1
		c-0.04-0.06-0.08-0.12-0.12-0.19c0.58-0.44,1.15-0.89,1.81-1.4c-0.06-0.16-0.14-0.38-0.26-0.68c-0.62,0.52-1.16,0.97-1.7,1.42
		c-0.06-0.09-0.13-0.17-0.19-0.26c0.66-0.52,1.31-1.03,2.15-1.69c-0.06-0.39,0.97-1.16-0.21-1.75c0.34-0.2,0.69-0.41,1.03-0.61
		c-0.12-0.14-0.23-0.27-0.35-0.41c-0.31,0.19-0.63,0.37-0.94,0.57c-1.72,1.06-3.41,2.16-5.16,3.18c-0.88,0.51-1.86,0.87-2.8,1.29
		c0.13-0.28,0.27-0.55,0.45-0.92c-1.45,0.9-2.77,1.72-4.1,2.54c0.04,0.11,0.08,0.23,0.12,0.34c0.38-0.14,0.78-0.24,1.12-0.43
		c0.55-0.31,1.06-0.68,1.58-1.03c-0.12,0.15-0.21,0.33-0.35,0.46c-1.59,1.37-3.43,2.21-5.38,2.99c-2.25,0.9-4.26,2.41-6.37,3.66
		c0.15-0.27,0.3-0.54,0.56-0.98c-1.71,0.93-3.21,1.74-4.71,2.56c0.03,0.06,0.06,0.12,0.09,0.18c1.22-0.48,2.43-0.96,3.65-1.44
		c0.72-0.07,1.45-0.14,2.17-0.21c-0.73,0.49-1.45,0.99-2.18,1.48c-1.15,0.54-2.3,1.09-3.49,1.65c0-0.12,0-0.29,0-0.78
		c-0.56,0.65-0.93,1.08-1.3,1.52c-0.02-0.29-0.04-0.58-0.06-0.97c-0.32,0.4-0.61,0.76-1.05,1.3c0.57-0.06,0.84-0.09,1.11-0.12
		c-1.51,0.92-3.02,1.83-4.53,2.75c2.55-0.42,4.51-1.97,6.62-3.24C201.88,171.79,201.99,171.86,202.09,171.92z M204.32,175.74
		c-0.84,0.58-1.68,1.15-2.52,1.73c-0.88,0.54-1.76,1.08-2.64,1.63c0-0.15,0-0.3,0-0.56c-0.36,0.24-0.66,0.42-0.95,0.61
		c0.03,0.06,0.06,0.11,0.09,0.17c0.25-0.05,0.5-0.1,0.75-0.15c-0.17,0.27-0.34,0.53-0.5,0.8c0.07,0.06,0.15,0.13,0.22,0.19
		c1-0.91,2-1.81,3-2.72C202.62,176.88,203.47,176.31,204.32,175.74c1.03-0.31,2.06-0.62,3.09-0.93c-0.05-0.13-0.1-0.27-0.15-0.4
		C206.27,174.85,205.3,175.29,204.32,175.74z M195.95,161.31c1.01-0.51,2.01-1.03,3.02-1.54c0.98-0.45,1.95-0.9,2.93-1.35
		c-0.09-0.16-0.18-0.32-0.27-0.48c-0.9,0.59-1.81,1.18-2.71,1.76c-0.99,0.54-1.98,1.08-2.97,1.61c-0.39,0.06-0.79,0.11-1.18,0.17
		c0.06,0.17,0.12,0.33,0.19,0.5C195.29,161.76,195.62,161.53,195.95,161.31z M193.72,182.11c0.75-0.54,1.51-1.08,2.26-1.61
		c-0.15-0.17-0.31-0.34-0.46-0.5c-0.59,0.72-1.18,1.43-1.77,2.14c-0.62,0.27-1.25,0.53-1.87,0.8c0.06,0.11,0.12,0.23,0.18,0.34
		C192.61,182.89,193.17,182.5,193.72,182.11z M154.11,159.82c-0.67-0.48-1.33-0.95-2-1.43c-0.08,0.13-0.16,0.26-0.24,0.38
		c0.68,0.47,1.35,0.94,2.04,1.4c0.01,0,0.15-0.2,0.23-0.3c0.49,0.37,0.97,0.75,1.47,1.13c0.14-0.3,0.24-0.51,0.46-0.98
		C155.32,159.95,154.71,159.89,154.11,159.82z M220.89,166.56c-0.15,0.31-0.29,0.62-0.44,0.93c0.1,0.02,0.2,0.04,0.3,0.06
		C220.8,167.22,220.85,166.89,220.89,166.56c-1.23-0.43-1.87,0.42-2.49,1.29C219.23,167.42,220.06,166.98,220.89,166.56z
		 M178.81,170.44c-0.6-0.2-1.2-0.41-1.81-0.61c-0.02,0.13-0.04,0.27-0.06,0.4c0.61,0.05,1.22,0.11,1.83,0.16
		c0.4,0.34,0.79,0.68,1.19,1.03c0.12-0.15,0.24-0.31,0.36-0.46c-0.95-0.7-1.89-1.4-2.84-2.1c-0.08,0.1-0.16,0.19-0.24,0.29
		C177.76,169.57,178.28,170.01,178.81,170.44z M211.84,161.07c0.29,0.05,0.59,0.11,1.02,0.19c0.82-0.46,1.74-0.98,2.67-1.5
		c-0.04-0.11-0.08-0.21-0.12-0.32c-0.39,0.07-0.77,0.14-1.16,0.21c0.46-0.49,0.92-0.98,1.39-1.47c-0.07-0.06-0.14-0.13-0.2-0.19
		c-0.56,0.58-1.11,1.17-1.67,1.75c-0.2,0.28-0.4,0.55-0.6,0.83c-0.06-0.06-0.13-0.13-0.19-0.19
		C212.6,160.6,212.22,160.84,211.84,161.07c-0.92,0.14-1.85,0.27-2.84,0.42c0.05,0.34,0.1,0.6,0.11,0.69
		C210.06,161.79,210.95,161.43,211.84,161.07z M209.02,163.48c-0.02,0.27-0.05,0.54-0.06,0.74c-0.64,0.12-1.22,0.22-1.8,0.33
		c0.01,0.07,0.02,0.14,0.03,0.2c0.58,0.06,1.16,0.12,1.94,0.2c0.76-0.68,1.61-1.46,2.47-2.24c-0.05-0.06-0.09-0.13-0.14-0.19
		c-0.59,0.19-1.18,0.39-1.77,0.58C209.47,163.23,209.25,163.36,209.02,163.48z M198.73,169.12c0.07-0.13,0.13-0.26,0.31-0.61
		c-0.76,0.31-1.3,0.53-1.84,0.75c0.02,0.09,0.03,0.19,0.05,0.28c0.33,0.02,0.65,0.05,0.98,0.07c-0.08,0.12-0.16,0.25-0.24,0.37
		c0.07,0.1,0.14,0.21,0.2,0.31c2.32-1.26,4.65-2.53,6.97-3.79c-0.05-0.12-0.1-0.24-0.15-0.35c-0.48,0.17-0.99,0.29-1.45,0.51
		C201.94,167.46,200.34,168.29,198.73,169.12z M212.45,152.78c-1.16,1.53-2.88,1.62-4.55,1.8c-0.49,0.24-0.98,0.48-1.45,0.72
		c-0.37,0.31-0.73,0.61-1.1,0.92c0.05,0.1,0.1,0.19,0.15,0.29c0.68-0.1,1.36-0.2,2.19-0.32c-0.57-0.4-0.92-0.65-1.27-0.89
		c1.3-0.11,2.6-0.22,3.95-0.34c1.05-0.79,2.14-1.6,3.23-2.42c-0.1,0.31-0.21,0.63-0.42,1.26c0.8-0.76,1.35-1.28,1.9-1.81
		c-0.05-0.07-0.1-0.13-0.15-0.2c-0.45,0.26-0.91,0.52-1.36,0.78c0.28-0.3,0.56-0.61,0.84-0.91c0.31-0.34,0.62-0.68,0.93-1.03
		c0.15-0.09,0.3-0.18,0.45-0.27c0.87-0.19,1.74-0.38,2.83-0.63c0.08-0.24,0.21-0.63,0.4-1.22c1.13-0.71,2.47-1.55,3.81-2.4
		c-0.08-0.13-0.16-0.25-0.24-0.38c-1.94,1.22-3.89,2.44-5.83,3.66c-0.03-0.14-0.05-0.29-0.14-0.8c-0.64,0.83-1.09,1.42-1.55,2.01
		c-0.8,0.55-1.61,1.09-2.41,1.64c-0.37,0.19-0.74,0.37-1.11,0.56c0.02,0.04,0.05,0.08,0.07,0.12
		C211.87,152.9,212.16,152.84,212.45,152.78z M161.02,161.91c-0.16-0.08-0.31-0.15-0.47-0.23c-1.66-0.89-3.32-1.77-4.99-2.66
		c0.13,0.53,0.39,0.9,0.75,1.07c1.17,0.57,2.37,1.07,3.56,1.59c-0.11,0.31-0.21,0.61-0.3,0.88c-0.8-0.25-1.54-0.47-2.28-0.7
		c-0.04,0.1-0.08,0.2-0.13,0.3c1.66,0.81,3.28,1.7,4.98,2.4c1.8,0.73,3.68,1.27,5.52,1.9c1.07,0.36,2.14,0.73,3.23,1.1
		c-1.2-0.9-2.28-1.81-3.45-2.57c-1.23-0.8-2.54-1.47-3.84-2.16c-0.5-0.27-1.05-0.45-1.58-0.67c-0.32-0.37-0.63-0.74-0.95-1.11
		c-0.07,0.08-0.13,0.16-0.2,0.24C160.93,161.49,160.98,161.7,161.02,161.91z M188.3,192.2c0.84-0.02,1.67-0.03,2.51-0.05
		c0.36,0.08,0.73,0.24,1.09,0.22c5.38-0.31,10.73-0.92,15.93-2.41c6.86-1.97,13.35-4.7,18.67-9.65c3.11-2.89,5.31-6.29,5.32-10.72
		c0-0.67-0.4-1.35-0.61-2.03c0.05-0.36,0.1-0.72,0.14-1.09c-0.16,0.01-0.32,0.03-0.48,0.04c0.12,0.34,0.24,0.69,0.35,1.03
		c0,1.3,0,2.6,0,3.9c-0.13,0-0.26,0-0.4,0c0-1.01,0-2.02,0-3.03c-0.14-0.01-0.29-0.02-0.43-0.03c-0.12,0.57-0.24,1.14-0.4,1.87
		c-0.05-0.48-0.08-0.82-0.13-1.29c-0.77,0.43-1.44,0.79-2.1,1.16c-0.03-0.06-0.06-0.11-0.09-0.17c0.77-0.55,1.53-1.09,2.36-1.68
		c-0.3-0.56-0.55-1.03-0.8-1.51l-0.06-0.06c-0.04-0.39-0.08-0.78-0.12-1.22c-0.83,0.38-1.55,0.7-2.27,1.03
		c0.71-0.52,1.41-1.03,2.18-1.59c-0.1-0.13-0.21-0.28-0.37-0.49c-0.16,0.25-0.29,0.44-0.53,0.83c0.06-0.79,0.1-1.27,0.16-1.96
		c0.48,0.67,0.82,1.15,1.17,1.63c0.13-0.1,0.26-0.2,0.39-0.3c-0.68-0.91-1.36-1.82-2.04-2.73c-0.14,0.09-0.29,0.18-0.43,0.27
		c0.15,0.41,0.29,0.83,0.39,1.09c-0.11,0.77-0.2,1.4-0.29,2.03c0.08,0.1,0.16,0.21,0.25,0.31c-14.61,8.96-29.21,17.92-44.08,27.04
		C185.3,192.48,186.8,192.34,188.3,192.2z M201.56,135.38c0.04-0.08,0.07-0.16,0.11-0.24c0.86,0.19,1.88,0.16,2.53,0.63
		c1.67,1.19,2.05,1.31,3.81,0.15c0.21-0.14,0.44-0.27,0.66-0.4c0.03,0.04,0.05,0.07,0.08,0.11c-0.4,0.43-0.8,0.87-1.26,1.38
		c0.84,0.55,1.54,1.02,2.38,1.57c0.97-0.44,1.91-0.04,2.75,0.75c0.91,0.86,2.05,0.98,3.14,0.66c1.97-0.57,3.89-1.31,6.11-2.07
		c-3.06-1.04-5.83-2.02-8.62-2.91c-0.87-0.28-1.82-0.33-2.8-0.49c0-0.01-0.05-0.32-0.2-0.4c-2.11-1.02-4.26-1.97-6.37-3.01
		c-2.39-1.18-4.54-0.7-6.7,1.09c0.85,0.27,1.71,0.54,2.56,0.81c-0.01,0.13-0.03,0.5-0.04,0.69
		C200.4,134.35,200.98,134.87,201.56,135.38z M199.71,136.18c-0.65-0.82-1.09-1.38-1.46-1.85c-0.52-0.08-1.1,0.01-1.41-0.24
		c-1.84-1.47-3.31-0.46-5.08,0.73c1.25,0.5,2.3,0.91,3.49,1.38c0.44,0.64,1.06,1.55,1.73,2.54
		C197.95,137.84,198.8,137.03,199.71,136.18z M193.56,144.53c-0.29,0.45-0.56,0.88-0.76,1.19c0.62,0.74,1.12,1.34,1.83,2.18
		c0.65-0.58,1.36-1.22,2.04-1.83c-0.72-0.91-1.28-1.62-1.94-2.44c-1.77,0.23-4.11-1.56-5.85,0.85
		C190.48,145.5,190.48,145.5,193.56,144.53z M188.56,144.33c0.33-0.69,0.63-1.34,0.89-1.89c-0.8-0.68-1.45-1.21-2.3-1.93
		c-0.63,0.45-1.42,1.01-2.17,1.55c0.87,0.94,1.57,1.72,2.35,2.56C187.6,144.56,188.06,144.45,188.56,144.33z M196.35,147.28
		c0.7,0.34,1.39,0.58,1.95,0.98c1.63,1.17,1.97,1.21,3.7,0.13C199.83,146.26,197.83,145.86,196.35,147.28z M185.79,140.92
		c-2.02-1.98-2.53-2-4.55-0.27C182.65,141.95,184.14,141.58,185.79,140.92z M203.92,138.72c-1.46-2.23-2.95-2.36-4.99-0.44
		C200.5,138.42,202.06,138.56,203.92,138.72z M188.81,187.88c0.08,0.09,0.16,0.17,0.25,0.26c2.05-1.76,4.1-3.52,6.15-5.28
		c-0.11-0.13-0.23-0.25-0.34-0.38C192.84,184.28,190.83,186.08,188.81,187.88z M176.22,169.07c0.05-0.11,0.11-0.22,0.16-0.34
		c-2.82-1.36-5.64-2.72-8.46-4.08c-0.06,0.12-0.11,0.24-0.17,0.36C170.58,166.36,173.4,167.71,176.22,169.07z M166.24,188.92
		c0.06-0.11,0.12-0.21,0.18-0.32c-2.21-1.11-4.42-2.21-6.64-3.32c-0.09,0.18-0.17,0.36-0.26,0.54
		C161.77,186.86,164,187.89,166.24,188.92z M196.35,171.88c-1.03,0.73-1.97,1.4-2.91,2.07c0.07,0.11,0.14,0.22,0.21,0.32
		c1.34-1.47,3.74-0.9,4.87-2.8c-0.72,0.37-1.44,0.74-2.16,1.11C196.35,172.41,196.35,172.23,196.35,171.88z M190.35,174.93
		c3-1.08,3.28-1.31,3.73-3.08C192.76,172.94,191.55,173.93,190.35,174.93z M220.34,155.99c0.06,0.11,0.12,0.22,0.18,0.33
		c1.68-0.56,3.13-1.53,4.39-2.85C223.39,154.32,221.87,155.15,220.34,155.99z M170.92,165.42c-0.05,0.13-0.1,0.27-0.15,0.4
		c1.6,0.65,3.2,1.29,4.8,1.94c0.06-0.15,0.12-0.3,0.18-0.46C174.15,166.68,172.53,166.05,170.92,165.42z M174.64,159.31
		c-0.19-1.13-0.35-2.08-0.54-3.21c-0.38,0.51-0.69,0.95-0.97,1.33C173.66,158.09,174.07,158.6,174.64,159.31z M223.06,155.75
		c0.06,0.09,0.12,0.18,0.18,0.27c1.13-0.71,2.26-1.41,3.39-2.12c-0.1-0.15-0.2-0.3-0.29-0.45
		C225.24,154.22,224.15,154.98,223.06,155.75z M182,177.37c0.07,0.16,0.14,0.32,0.21,0.48c1.02-0.44,2.03-0.88,3.05-1.31
		c-0.05-0.12-0.1-0.23-0.14-0.35C184.08,176.58,183.04,176.98,182,177.37z M200.47,169.95c-0.08-0.13-0.17-0.27-0.25-0.4
		c-1.03,0.53-2.06,1.06-3.09,1.59c0.07,0.12,0.14,0.24,0.21,0.36C198.38,170.98,199.43,170.47,200.47,169.95z M186.58,153.83
		c-0.04,0.09-0.08,0.17-0.12,0.26c1.71,0.37,3.41,0.73,5.12,1.1c0.02-0.1,0.04-0.2,0.06-0.3
		C189.95,154.53,188.26,154.18,186.58,153.83z M202.99,156.49c0.05,0.1,0.1,0.2,0.15,0.29c1.08-0.54,2.15-1.08,3.23-1.62
		c-0.05-0.11-0.11-0.21-0.16-0.32C205.13,155.39,204.06,155.94,202.99,156.49z M204.65,165.33c0.07,0.1,0.14,0.2,0.22,0.31
		c1.15-0.83,2.31-1.66,3.46-2.49c-0.07-0.09-0.13-0.19-0.2-0.28C206.97,163.68,205.81,164.5,204.65,165.33z M167.8,155.37
		c-0.06,0.16-0.11,0.31-0.17,0.47c0.77,0.28,1.55,0.57,2.32,0.85c0.06-0.16,0.11-0.31,0.17-0.47
		C169.35,155.94,168.57,155.65,167.8,155.37z M192.57,155.32c-0.33,0.24-0.64,0.45-1.22,0.86c0.69,0.45,1.2,0.79,1.96,1.29
		C193,156.58,192.8,156,192.57,155.32z M217.28,157.29c0.05,0.16,0.11,0.32,0.16,0.48c0.83-0.28,1.67-0.57,2.5-0.85
		c-0.05-0.15-0.1-0.29-0.15-0.44C218.95,156.75,218.11,157.02,217.28,157.29z M214.72,171.09c0.07,0.09,0.15,0.19,0.22,0.28
		c0.9-0.67,1.79-1.34,2.69-2.01c-0.08-0.1-0.15-0.2-0.23-0.29C216.51,169.74,215.62,170.41,214.72,171.09z M174.92,148.36
		c0.59,0.54,1.08,0.99,1.67,1.53c0-0.42,0-0.67,0-0.93c-0.4-0.19-0.74-0.35-1.1-0.52c-0.05-0.39-0.09-0.74-0.13-1.09
		c-0.06,0-0.13,0.01-0.19,0.01C175.09,147.67,175.01,147.99,174.92,148.36z M190.34,141.18c-0.65-0.37-1.26-0.71-2.15-1.21
		c0.89,0.98,1.49,1.62,2.1,2.29C190.31,141.98,190.32,141.62,190.34,141.18z M199.17,181.04c-0.07-0.08-0.14-0.17-0.21-0.25
		c-1.06,0.72-2.12,1.44-3.18,2.16c0.07,0.1,0.13,0.19,0.2,0.29C197.04,182.51,198.11,181.78,199.17,181.04z M197.03,159.58
		c0.06,0.11,0.11,0.21,0.17,0.32c0.99-0.52,1.97-1.04,2.96-1.57c-0.06-0.11-0.12-0.22-0.17-0.33
		C199,158.53,198.02,159.05,197.03,159.58z M225.47,144.96c-0.09-0.12-0.18-0.24-0.27-0.37c-0.76,0.68-1.52,1.35-2.27,2.03
		c0.05,0.06,0.09,0.12,0.14,0.18C223.87,146.19,224.67,145.57,225.47,144.96z M188.46,186.65c-0.09-0.1-0.17-0.2-0.26-0.3
		c-0.78,0.64-1.55,1.28-2.33,1.92c0.09,0.1,0.18,0.21,0.27,0.31C186.91,187.94,187.68,187.29,188.46,186.65z M222.9,164.51
		c-0.04-0.12-0.07-0.23-0.11-0.35c-0.78,0.47-1.56,0.94-2.34,1.42c0.07,0.11,0.13,0.22,0.2,0.33
		C221.4,165.44,222.15,164.97,222.9,164.51z M180.84,179.49c0.07,0.12,0.15,0.24,0.22,0.36c0.9-0.57,1.8-1.14,2.71-1.71
		c-0.05-0.08-0.09-0.15-0.14-0.23C182.69,178.44,181.77,178.97,180.84,179.49z M199.95,150.87c0.53,0.2,0.83,0.31,1.32,0.5
		c0.06-0.63,0.1-1.11,0.16-1.84C200.84,150.06,200.48,150.39,199.95,150.87z M182.69,151.8c-0.15,0.03-0.3,0.06-0.45,0.09
		c0.16,0.69,0.32,1.38,0.48,2.07c0.12-0.02,0.25-0.04,0.37-0.06C182.95,153.2,182.82,152.5,182.69,151.8z M222.27,157.38
		c0.06,0.08,0.12,0.16,0.19,0.24c0.88-0.59,1.76-1.18,2.63-1.77c-0.06-0.09-0.13-0.19-0.19-0.28
		C224.02,156.17,223.14,156.78,222.27,157.38z M189.64,164.58c-0.07-0.09-0.14-0.18-0.21-0.27c-0.87,0.51-1.74,1.01-2.61,1.52
		c0.06,0.1,0.11,0.2,0.17,0.29C187.87,165.61,188.76,165.09,189.64,164.58z M165.87,154.98c0-0.42,0-0.86,0-1.29
		c-0.08,0-0.17,0-0.25,0c-0.05,0.63-0.11,1.27-0.17,1.99c0.3-0.05,0.58-0.1,1.05-0.18C166.19,155.25,166.04,155.12,165.87,154.98z
		 M217.35,166.84c0.09,0.09,0.18,0.19,0.27,0.28c0.72-0.57,1.45-1.14,2.17-1.71c-0.06-0.08-0.13-0.17-0.19-0.25
		C218.84,165.72,218.1,166.28,217.35,166.84z M164.83,152.26c-0.3,0.45-0.51,0.75-0.76,1.11c0.34,0.33,0.64,0.61,1.09,1.04
		C165.04,153.62,164.95,153.03,164.83,152.26z M225.1,164.39c-0.5,0.63-0.94,1.18-1.38,1.73C224.3,165.65,225.5,165.65,225.1,164.39
		z M185.28,153.69c-0.45,0.19-0.82,0.35-1.43,0.61c0.98,0.06,1.67,0.1,2.63,0.16C185.94,154.12,185.65,153.93,185.28,153.69z
		 M183.05,167.97c0.08,0.11,0.16,0.23,0.24,0.34c0.62-0.48,1.24-0.96,1.86-1.44c-0.05-0.07-0.1-0.13-0.15-0.2
		C184.35,167.11,183.7,167.54,183.05,167.97z M193.72,161.48c-0.89,0.59-1.52,1.01-2.15,1.44c0.03,0.05,0.07,0.1,0.1,0.15
		c0.56-0.21,1.13-0.43,1.68-0.64C193.42,162.24,193.51,162.01,193.72,161.48z M187.46,177.59c0-0.07,0-0.15,0-0.22
		c-0.72,0-1.44,0-2.16,0c0,0.1,0.01,0.21,0.01,0.31C186.02,177.66,186.74,177.62,187.46,177.59z M184.84,138.61
		c-0.09,0.14-0.16,0.22-0.16,0.23c0.45,0.39,0.91,0.77,1.37,1.16c0.07-0.1,0.14-0.2,0.22-0.29
		C185.79,139.33,185.32,138.97,184.84,138.61z M182.8,163.7c0.13-0.03,0.26-0.05,0.38-0.08c-0.14-0.62-0.28-1.23-0.42-1.85
		c-0.1,0.02-0.2,0.04-0.3,0.06C182.57,162.46,182.69,163.08,182.8,163.7z M193.36,163.68c-0.06-0.12-0.12-0.25-0.18-0.37
		c-0.47,0.15-0.94,0.3-1.41,0.45c0.05,0.14,0.09,0.28,0.14,0.42C192.39,164.02,192.87,163.85,193.36,163.68z M186.79,175.22
		c0.1,0.13,0.19,0.27,0.29,0.4c0.44-0.34,0.89-0.68,1.33-1.02c-0.07-0.09-0.13-0.19-0.2-0.28
		C187.73,174.63,187.26,174.93,186.79,175.22z M185.14,187.31c-0.06-0.1-0.13-0.19-0.19-0.29c-0.51,0.34-1.03,0.67-1.54,1.01
		c0.06,0.1,0.13,0.2,0.19,0.3C184.12,187.98,184.63,187.64,185.14,187.31z M203.11,178.78c0.06,0.08,0.11,0.16,0.17,0.24
		c0.65-0.41,1.31-0.83,1.96-1.24c-0.04-0.07-0.08-0.13-0.13-0.2C204.45,177.98,203.78,178.38,203.11,178.78z M188.66,174.65
		c0.06,0.1,0.12,0.2,0.18,0.29c0.45-0.26,0.9-0.51,1.35-0.77c-0.08-0.13-0.17-0.27-0.25-0.4
		C189.52,174.07,189.09,174.36,188.66,174.65z M192.27,164.52c-0.04-0.12-0.08-0.23-0.12-0.35c-0.39,0.33-1.27-0.32-1.49,1.03
		C191.38,164.9,191.83,164.71,192.27,164.52z M190.25,175.78c0.05,0.08,0.1,0.16,0.15,0.24c0.57-0.32,1.13-0.63,1.7-0.95
		c-0.04-0.07-0.08-0.14-0.12-0.21C191.4,175.17,190.82,175.48,190.25,175.78z M191.59,184.54c-0.06-0.08-0.13-0.17-0.19-0.25
		c-0.52,0.41-1.04,0.81-1.56,1.22c0.06,0.08,0.12,0.16,0.18,0.24C190.55,185.35,191.07,184.94,191.59,184.54z M225.35,163.75
		c-0.08-0.09-0.16-0.18-0.24-0.28c-0.51,0.36-1.02,0.72-1.53,1.08c0.09,0.12,0.17,0.23,0.26,0.35
		C224.34,164.52,224.84,164.14,225.35,163.75z M183.27,153.17c0.08-0.01,0.17-0.02,0.25-0.02c0-0.55,0-1.1,0-1.64
		c-0.12,0.01-0.25,0.02-0.37,0.02C183.19,152.07,183.23,152.62,183.27,153.17z M180.93,151.44c0.03-0.11,0.07-0.22,0.1-0.32
		c-0.59-0.16-1.17-0.33-1.76-0.49c-0.03,0.09-0.05,0.18-0.08,0.28C179.77,151.08,180.35,151.26,180.93,151.44z M202.42,178.49
		c-0.08-0.1-0.17-0.2-0.25-0.3c-0.41,0.36-0.83,0.72-1.24,1.07c0.06,0.07,0.12,0.15,0.18,0.22
		C201.54,179.15,201.98,178.82,202.42,178.49z M205.54,165.55c0.02,0.11,0.05,0.21,0.07,0.32c0.49-0.11,0.99-0.22,1.48-0.32
		c-0.03-0.11-0.05-0.23-0.08-0.34C206.52,165.32,206.03,165.44,205.54,165.55z M197.34,161.43c0.08,0.1,0.16,0.2,0.24,0.29
		c0.52-0.36,1.03-0.73,1.55-1.09c-0.05-0.08-0.1-0.15-0.14-0.23C198.43,160.74,197.89,161.09,197.34,161.43z M173.07,146.89
		c0.05-0.13,0.1-0.26,0.15-0.39c-0.47-0.15-0.95-0.29-1.42-0.44c-0.03,0.1-0.06,0.2-0.1,0.3
		C172.16,146.53,172.61,146.71,173.07,146.89z M179.4,160.33c0.04-0.1,0.08-0.2,0.12-0.29c-0.62-0.25-1.24-0.5-1.86-0.74
		c-0.04,0.09-0.07,0.18-0.11,0.28C178.16,159.82,178.78,160.08,179.4,160.33z M209.54,174.04c-0.09-0.12-0.18-0.24-0.27-0.36
		c-0.41,0.28-0.82,0.56-1.23,0.83c0.07,0.11,0.15,0.22,0.22,0.33C208.68,174.57,209.11,174.31,209.54,174.04z M215.74,158.52
		c0.04,0.11,0.09,0.21,0.13,0.32c0.5-0.21,1-0.42,1.5-0.63c-0.05-0.12-0.11-0.25-0.16-0.37
		C216.72,158.06,216.23,158.29,215.74,158.52z M201.26,146.6c-0.08,0.08-0.16,0.17-0.24,0.25c0.46,0.4,0.91,0.79,1.37,1.19
		c0.06-0.07,0.13-0.15,0.19-0.22C202.13,147.42,201.69,147.01,201.26,146.6z M175.93,158.89c0.01,0.15,0.03,0.29,0.04,0.44
		c0.44-0.1,0.88-0.19,1.31-0.29c-0.01-0.08-0.03-0.16-0.04-0.25C176.8,158.82,176.37,158.85,175.93,158.89z M217.91,159.01
		c-0.06-0.1-0.13-0.19-0.19-0.29c-0.48,0.36-0.95,0.72-1.43,1.08c0.06,0.08,0.13,0.16,0.19,0.24
		C216.96,159.69,217.43,159.35,217.91,159.01z M198.04,179.37c-0.12-0.06-0.25-0.12-0.37-0.17c-0.22,0.51-0.45,1.01-0.67,1.52
		c0.09,0.05,0.19,0.09,0.28,0.14C197.54,180.36,197.79,179.86,198.04,179.37z M200.58,136.03c0.13-0.1,0.27-0.2,0.4-0.29
		c-0.3-0.3-0.6-0.6-0.91-0.9c-0.08,0.07-0.15,0.14-0.23,0.2C200.09,135.37,200.34,135.7,200.58,136.03z M195.86,139.26
		c0.09,0,0.18,0,0.27,0c0-0.39,0-0.77,0-1.16c-0.09,0-0.18,0-0.27,0C195.86,138.49,195.86,138.88,195.86,139.26z M187.78,176.62
		c0.04,0.16,0.09,0.33,0.13,0.49c0.42-0.2,0.84-0.39,1.26-0.59c-0.02-0.08-0.04-0.15-0.07-0.23
		C188.66,176.4,188.22,176.51,187.78,176.62z M194.35,137.05c0.13,0.06,0.27,0.13,0.4,0.19c0.13-0.27,0.26-0.55,0.39-0.82
		c-0.13-0.06-0.27-0.13-0.4-0.19C194.61,136.51,194.48,136.78,194.35,137.05z M186.04,189.64c0.06,0.08,0.13,0.16,0.19,0.23
		c0.44-0.34,0.87-0.68,1.31-1.01c-0.08-0.1-0.16-0.2-0.24-0.3C186.88,188.92,186.46,189.28,186.04,189.64z M198.21,138.59
		c-0.02,0.1-0.04,0.2-0.06,0.3c0.5,0.1,1,0.2,1.5,0.3c0.02-0.09,0.04-0.19,0.06-0.28C199.2,138.8,198.7,138.7,198.21,138.59z
		 M208.45,154.14c0.05,0.1,0.1,0.19,0.15,0.29c0.42-0.21,0.84-0.42,1.26-0.63c-0.06-0.11-0.12-0.23-0.18-0.34
		C209.27,153.69,208.86,153.92,208.45,154.14z M230.1,165.51c-0.15,0.02-0.3,0.05-0.45,0.07c0.11,0.42,0.22,0.84,0.34,1.25
		c0.12-0.03,0.24-0.05,0.37-0.08C230.27,166.33,230.19,165.92,230.1,165.51z M174.6,190.62c-0.06,0.1-0.11,0.21-0.17,0.31
		c0.38,0.21,0.77,0.41,1.15,0.62c0.06-0.11,0.12-0.22,0.18-0.33C175.37,191.02,174.98,190.82,174.6,190.62z M189.2,145.64
		c0.04-0.12,0.08-0.23,0.12-0.35c-0.42-0.13-0.83-0.25-1.25-0.38c-0.04,0.11-0.07,0.23-0.11,0.34
		C188.37,145.38,188.78,145.51,189.2,145.64z M177.89,149.98c0,0.04,0,0.08,0,0.11c0.61,0,1.23,0,1.84,0c0-0.04,0-0.08,0-0.11
		C179.12,149.98,178.51,149.98,177.89,149.98z M219.87,146.69c0.05,0.08,0.1,0.16,0.16,0.24c0.48-0.31,0.97-0.62,1.45-0.93
		c-0.05-0.08-0.1-0.16-0.16-0.24C220.84,146.07,220.35,146.38,219.87,146.69z M203.85,157.19c-0.04-0.09-0.09-0.17-0.13-0.26
		c-0.45,0.24-0.91,0.47-1.36,0.71c0.04,0.08,0.08,0.16,0.12,0.24C202.93,157.65,203.39,157.42,203.85,157.19z M183.92,162.36
		c-0.08,0.03-0.16,0.05-0.24,0.08c0.1,0.36,0.2,0.73,0.29,1.09c0.1-0.03,0.21-0.06,0.31-0.09
		C184.16,163.08,184.04,162.72,183.92,162.36z M196,143.45c-0.11,0.06-0.22,0.12-0.33,0.18c0.17,0.27,0.33,0.53,0.5,0.8
		c0.08-0.05,0.17-0.09,0.25-0.14C196.28,144.01,196.14,143.73,196,143.45z M213.09,162.26c-0.1-0.11-0.2-0.21-0.3-0.32
		c-0.3,0.31-0.59,0.63-0.89,0.94c0.11,0.1,0.22,0.21,0.33,0.31C212.52,162.88,212.81,162.57,213.09,162.26z M176.06,167.48
		c-0.05,0.11-0.1,0.23-0.15,0.34c0.37,0.14,0.75,0.28,1.12,0.42c0.03-0.08,0.07-0.17,0.1-0.25
		C176.77,167.82,176.41,167.65,176.06,167.48z M179.18,169.12c-0.07,0.09-0.13,0.18-0.2,0.28c0.36,0.19,0.72,0.38,1.08,0.57
		c0.04-0.08,0.08-0.15,0.12-0.23C179.85,169.53,179.51,169.33,179.18,169.12z M211.82,152.03c-0.06-0.07-0.12-0.13-0.18-0.2
		c-0.37,0.34-0.74,0.69-1.12,1.03c0.05,0.06,0.1,0.11,0.15,0.17C211.06,152.7,211.44,152.37,211.82,152.03z M174.07,191.16
		c0.09-0.1,0.19-0.21,0.28-0.31c-0.24-0.2-0.47-0.41-0.71-0.61c-0.07,0.07-0.15,0.15-0.22,0.22
		C173.64,190.69,173.86,190.93,174.07,191.16z M230.69,166.11c0.11-0.02,0.21-0.05,0.32-0.07c-0.09-0.35-0.18-0.7-0.28-1.06
		c-0.11,0.03-0.23,0.05-0.34,0.08C230.49,165.42,230.59,165.76,230.69,166.11z M211.11,143.71c-0.1,0.02-0.2,0.04-0.31,0.06
		c0.07,0.3,0.14,0.61,0.21,0.91c0.09-0.02,0.18-0.04,0.28-0.06C211.23,144.32,211.17,144.02,211.11,143.71z M230.24,168.15
		c0.08,0,0.17,0,0.25,0c0-0.32,0-0.65,0-0.97c-0.08,0-0.17,0-0.25,0C230.24,167.5,230.24,167.82,230.24,168.15z M203.37,177.84
		c0.08,0.1,0.17,0.2,0.25,0.3c0.29-0.38,0.59-0.75,0.88-1.13c-0.08-0.07-0.15-0.15-0.23-0.22
		C203.97,177.14,203.67,177.49,203.37,177.84z M171.59,178.14c-0.07,0.09-0.14,0.19-0.21,0.28c0.42,0.2,0.85,0.4,1.27,0.6
		c0.04-0.09,0.09-0.17,0.13-0.26C172.38,178.56,171.99,178.35,171.59,178.14z M186.97,166.87c-0.14-0.13-0.28-0.27-0.42-0.4
		c-0.22,0.31-0.45,0.63-0.67,0.94c0.06,0.07,0.13,0.14,0.19,0.21C186.37,167.37,186.67,167.12,186.97,166.87z M230.12,164.69
		c0.12-0.03,0.24-0.07,0.36-0.1c-0.12-0.32-0.24-0.65-0.37-0.97c-0.09,0.03-0.18,0.05-0.26,0.08
		C229.94,164.03,230.03,164.36,230.12,164.69z M181.85,160.82c-0.14-0.04-0.27-0.09-0.41-0.13c-0.04,0.25-0.1,0.5-0.12,0.75
		c0,0.05,0.16,0.11,0.3,0.2C181.7,161.33,181.78,161.07,181.85,160.82z M197.44,133.14c0.05-0.09,0.1-0.18,0.15-0.27
		c-0.33-0.17-0.66-0.33-0.99-0.5c-0.04,0.07-0.07,0.15-0.11,0.22C196.81,132.78,197.12,132.96,197.44,133.14z M179.91,190.47
		c0.06-0.12,0.12-0.24,0.17-0.36c-0.3-0.1-0.6-0.2-0.9-0.3c-0.02,0.04-0.04,0.08-0.06,0.12
		C179.38,190.11,179.65,190.29,179.91,190.47z M210.58,139.58c0,0.07-0.01,0.13-0.01,0.2c0.35,0.04,0.7,0.09,1.05,0.13
		c0.01-0.09,0.01-0.18,0.02-0.27C211.29,139.62,210.93,139.6,210.58,139.58z M228.91,161.9c-0.09,0.08-0.19,0.16-0.28,0.23
		c0.22,0.31,0.45,0.61,0.67,0.92c0.08-0.05,0.16-0.11,0.24-0.16C229.33,162.56,229.12,162.23,228.91,161.9z M226.86,142.46
		c-0.08-0.07-0.15-0.13-0.23-0.2c-0.27,0.32-0.54,0.64-0.82,0.96c0.07,0.06,0.13,0.11,0.2,0.17
		C226.3,143.08,226.58,142.77,226.86,142.46z M196.41,181.37c-0.05-0.06-0.11-0.12-0.16-0.18c-0.3,0.15-0.6,0.31-0.91,0.46
		c0.12,0.12,0.24,0.24,0.36,0.36C195.94,181.8,196.18,181.58,196.41,181.37z M188.53,166.46c0.09,0.08,0.19,0.15,0.28,0.23
		c0.22-0.25,0.44-0.5,0.67-0.76c-0.07-0.06-0.13-0.12-0.2-0.19C189.03,165.99,188.78,166.22,188.53,166.46z M195.6,183.66
		c-0.08-0.09-0.16-0.18-0.23-0.26c-0.26,0.22-0.53,0.44-0.79,0.66c0.06,0.08,0.13,0.16,0.19,0.24
		C195.04,184.09,195.32,183.88,195.6,183.66z M204.23,174.92c0.04,0.09,0.09,0.17,0.13,0.26c0.35-0.2,0.71-0.41,1.06-0.61
		c-0.03-0.05-0.05-0.11-0.08-0.16C204.97,174.57,204.6,174.74,204.23,174.92z M161.81,152.81c0.06-0.08,0.13-0.17,0.19-0.25
		c-0.35-0.18-0.69-0.36-1.04-0.53c-0.04,0.07-0.08,0.15-0.12,0.22C161.16,152.43,161.49,152.62,161.81,152.81z M213.16,146.83
		c0.09-0.01,0.19-0.01,0.28-0.02c-0.07-0.37-0.14-0.74-0.22-1.1c-0.09,0.02-0.18,0.03-0.27,0.05
		C213.02,146.11,213.09,146.47,213.16,146.83z M212.14,173.46c-0.03-0.04-0.05-0.09-0.08-0.13c-0.26,0.15-0.52,0.29-0.78,0.44
		c0.03,0.05,0.06,0.11,0.09,0.16C211.62,173.76,211.88,173.61,212.14,173.46z M223.79,144.43c0.02,0.05,0.05,0.09,0.07,0.14
		c0.32-0.16,0.64-0.32,0.96-0.48c-0.03-0.06-0.07-0.12-0.1-0.19C224.41,144.08,224.1,144.25,223.79,144.43z M162.39,152.03
		c-0.05,0.09-0.09,0.18-0.14,0.28c0.35,0.13,0.71,0.25,1.06,0.38c0.03-0.09,0.06-0.18,0.1-0.27
		C163.07,152.29,162.73,152.16,162.39,152.03z M158.98,185.48c0.04-0.09,0.09-0.17,0.13-0.26c-0.33-0.18-0.65-0.35-0.98-0.53
		c-0.05,0.09-0.09,0.18-0.14,0.27C158.32,185.14,158.65,185.31,158.98,185.48z M212.91,171.45c-0.06-0.08-0.13-0.15-0.19-0.23
		c-0.26,0.22-0.52,0.44-0.78,0.66c0.06,0.06,0.11,0.13,0.17,0.19C212.37,171.86,212.64,171.66,212.91,171.45z M168.51,186.37
		c-0.04,0.07-0.09,0.13-0.13,0.2c0.33,0.11,0.66,0.22,0.99,0.33c0.02-0.05,0.04-0.11,0.06-0.16
		C169.12,186.61,168.82,186.49,168.51,186.37z M209.86,175.4c0.02,0.06,0.05,0.12,0.07,0.18c0.29-0.17,0.57-0.33,0.86-0.5
		c-0.03-0.06-0.06-0.11-0.1-0.17C210.42,175.08,210.14,175.24,209.86,175.4z M197.04,179.86c-0.1-0.08-0.2-0.16-0.3-0.24
		c-0.16,0.22-0.31,0.44-0.47,0.66c0.08,0.06,0.17,0.12,0.25,0.18C196.69,180.26,196.87,180.06,197.04,179.86z M193.16,155.28
		c-0.09,0.02-0.18,0.04-0.27,0.06c0.12,0.36,0.23,0.73,0.35,1.09c0.07-0.02,0.14-0.04,0.21-0.06
		C193.35,156,193.26,155.64,193.16,155.28z M221.38,167.77c-0.15-0.08-0.24-0.13-0.25-0.12c-0.14,0.18-0.28,0.37-0.4,0.57
		c-0.02,0.03,0.04,0.12,0.12,0.29C221.04,168.23,221.21,168.01,221.38,167.77z M182.89,189.95c-0.06-0.08-0.12-0.16-0.19-0.24
		c-0.26,0.25-0.53,0.5-0.79,0.75c0.06,0.07,0.13,0.13,0.19,0.2C182.36,190.42,182.63,190.18,182.89,189.95z"/>
	<path d="M152.66,168.17c-0.17,0.08-0.34,0.17-0.51,0.25c-0.14-0.51-0.29-1.02-0.43-1.52c-0.13,0.01-0.26,0.03-0.39,0.04
		c0.13-2.32,0.26-4.64,0.39-6.96c0,0-0.05,0.04-0.05,0.04c0.61,0.24,1.22,0.48,1.83,0.71c0.27,0.22,0.54,0.44,0.81,0.65
		c-0.7-0.16-1.41-0.33-2.23-0.52c-0.1,1.89-0.21,3.88-0.32,5.86c0.08-0.02,0.15-0.04,0.23-0.06
		C152.22,167.16,152.44,167.67,152.66,168.17z"/>
	<path d="M171.43,189.41c-0.68-0.39-1.33-1.01-2.05-1.12c-2.32-0.35-3.64-2.46-5.89-3.05c1.39-0.51,2.18,0.39,3.1,0.93
		c0,0-0.03-0.03-0.03-0.03c0.54,0.42,1.04,0.91,1.63,1.26c1.12,0.67,2.28,1.26,3.42,1.89C171.56,189.35,171.5,189.39,171.43,189.41z
		"/>
	<path d="M166.8,176.32c-1.3-0.16-2.62-0.13-3.65-1.24c-0.47-0.5-1.24-0.71-1.88-1.06c1.55,0.6,3.09,1.21,4.64,1.81
		c0.33,0.13,0.68,0.2,1.01,0.3c0,0,0.06,0.08,0.06,0.08C166.93,176.25,166.87,176.29,166.8,176.32z"/>
	<path d="M188.87,167.48c1.36-0.65,2.73-1.3,4.09-1.95c-1.19,0.77-2.38,1.55-3.59,2.29c-0.09,0.06-0.33-0.13-0.51-0.21
		C188.87,167.56,188.87,167.52,188.87,167.48z"/>
	<path d="M166.99,176.22c0,0-0.06-0.08-0.06-0.08c-0.73-0.58-1.45-1.16-2.18-1.74c1.24,0.01,1.98,0.74,2.51,1.76
		C167.17,176.18,167.08,176.2,166.99,176.22z"/>
	<path d="M201.78,171.73c0.67-0.47,1.34-0.95,2.01-1.42c-0.42,0.48-0.83,0.97-1.25,1.45c-0.15,0.05-0.3,0.1-0.45,0.15
		C201.99,171.86,201.88,171.79,201.78,171.73z"/>
	<path d="M202.09,171.92c0.15-0.05,0.3-0.1,0.45-0.15c-0.38,0.43-0.75,0.85-1.13,1.28c-0.06-0.06-0.12-0.12-0.18-0.18
		c0.07-0.14,0.13-0.27,0.2-0.41C201.65,172.28,201.87,172.1,202.09,171.92z"/>
	<path d="M209.7,163.1c0.08,0.19,0.17,0.38,0.38,0.88c-0.52-0.25-0.79-0.37-1.05-0.49C209.25,163.36,209.47,163.23,209.7,163.1z"/>
	<path d="M164.84,196.52c18.86,5.75,37.47,5.54,55.73-2.38C202.32,202.4,183.72,202.63,164.84,196.52z"/>
	<path d="M237.75,168.49c-0.88-5.59-3.29-10.05-7.33-13.86C233.89,156.23,238.04,164.02,237.75,168.49z"/>
	<path d="M237.41,161.64c1.43,2.5,2.66,5.76,2.6,8.83C239.19,167.68,238.21,164.37,237.41,161.64z"/>
	<path d="M233.31,172.75c-0.27,2.67-1.46,4.89-3.49,6.67c0.26-0.36,0.57-0.68,0.76-1.07c0.93-1.85,1.84-3.72,2.75-5.58
		L233.31,172.75z"/>
	<path d="M232.34,164.3c-1.69-2-3.37-3.99-5.06-5.99c0,0-0.02,0.02-0.02,0.02c2.39,1.4,4.2,3.29,5.05,5.98
		C232.32,164.32,232.34,164.3,232.34,164.3z"/>
	<path d="M233.02,158.42c-1.61-1.64-3.23-3.28-4.84-4.93c-0.09,0.09-0.19,0.19-0.28,0.28C229.92,154.98,231.51,156.64,233.02,158.42
		z"/>
	<path d="M233.48,163.7c0.5,2.25,1,4.51,1.49,6.76c-0.08,0.02-0.15,0.03-0.23,0.05c-0.51-2.25-1.02-4.5-1.53-6.75
		C233.3,163.74,233.39,163.72,233.48,163.7z"/>
	<path d="M233.33,172.77c-0.12-2.07-0.24-4.14-0.36-6.22l-0.02,0.03c0.18,0.44,0.51,0.88,0.51,1.31c0.01,1.62-0.09,3.23-0.15,4.85
		C233.31,172.75,233.33,172.77,233.33,172.77z"/>
	<path d="M145.4,170.59c0.06-1.44,0.13-2.88,0.19-4.32c0.08,0,0.15,0.01,0.23,0.01c-0.07,1.45-0.14,2.91-0.2,4.36
		C145.54,170.62,145.47,170.61,145.4,170.59z"/>
	<path d="M232.55,160.73c-0.56-0.74-1.12-1.49-1.67-2.23c0.1-0.07,0.21-0.14,0.31-0.21c0.47,0.8,0.94,1.6,1.41,2.4L232.55,160.73z"
		/>
	<path d="M149.47,167.82c0,1.02,0,2.04,0,3.07c-0.04,0-0.07,0-0.11,0c0-1.01,0-2.01,0-3.02
		C149.39,167.86,149.43,167.84,149.47,167.82z"/>
	<path d="M140.41,165.51c0.22-0.84,0.45-1.67,0.67-2.51c0.11,0.03,0.21,0.07,0.32,0.1c-0.34,0.79-0.67,1.59-1.01,2.38L140.41,165.51
		z"/>
	<path d="M232.59,160.69c0.37,0.58,0.74,1.16,1.11,1.73c-0.09,0.05-0.18,0.1-0.27,0.16c-0.29-0.62-0.59-1.23-0.88-1.85
		C232.55,160.73,232.59,160.69,232.59,160.69z"/>
	<path d="M140.38,165.49c-0.1,0.8-0.21,1.61-0.31,2.41c-0.08-0.02-0.15-0.03-0.23-0.05c0.19-0.78,0.38-1.56,0.56-2.35
		C140.41,165.51,140.38,165.49,140.38,165.49z"/>
	<path d="M233.98,160.74c0.38,0.55,0.75,1.11,1.13,1.66c-0.09,0.05-0.17,0.1-0.26,0.15c-0.28-0.61-0.56-1.22-0.84-1.83
		C234.01,160.72,233.98,160.74,233.98,160.74z"/>
	<path d="M232.97,166.56c-0.21-0.75-0.42-1.51-0.62-2.26c0,0-0.02,0.02-0.02,0.02c0.21,0.75,0.42,1.51,0.63,2.26
		C232.94,166.58,232.97,166.56,232.97,166.56z"/>
	<path d="M223.6,192.83c-0.53,0.27-1.05,0.54-1.58,0.81c-0.03-0.07-0.06-0.13-0.09-0.2c0.53-0.26,1.06-0.53,1.59-0.79
		C223.55,192.71,223.57,192.77,223.6,192.83z"/>
	<path d="M229.48,158.38c-0.37-0.39-0.73-0.77-1.1-1.16c0.01-0.01,0.02-0.02,0.02-0.03c0.37,0.39,0.74,0.78,1.12,1.18
		C229.5,158.38,229.49,158.38,229.48,158.38z"/>
	<path d="M163.66,196.29c-0.49-0.19-0.99-0.37-1.48-0.56c0.02-0.07,0.04-0.14,0.07-0.21c0.5,0.17,1.01,0.35,1.51,0.52
		C163.73,196.12,163.69,196.2,163.66,196.29z"/>
	<path d="M232.01,161.51c0.28,0.46,0.57,0.91,0.85,1.37c-0.07,0.05-0.15,0.09-0.22,0.14c-0.28-0.46-0.56-0.91-0.84-1.37
		C231.87,161.6,231.94,161.56,232.01,161.51z"/>
	<path d="M148.96,161.11c0.35-0.28,0.7-0.56,1.06-0.84c0.04,0.03,0.08,0.06,0.12,0.09c-0.31,0.34-0.62,0.67-0.93,1.01
		C149.13,161.28,149.05,161.19,148.96,161.11z"/>
	<path d="M148.5,168.29c0,0.35,0,0.7,0,1.06c-0.03,0-0.07,0-0.1,0.01c-0.02-0.34-0.03-0.67-0.05-1.01
		C148.4,168.33,148.45,168.31,148.5,168.29z"/>
	<path d="M142.53,160.9c-0.17,0.31-0.34,0.62-0.51,0.93c-0.06-0.03-0.12-0.06-0.18-0.09c0.17-0.31,0.35-0.62,0.52-0.93
		C142.42,160.84,142.48,160.87,142.53,160.9z"/>
	<path d="M234.01,160.72c-0.25-0.31-0.5-0.63-0.75-0.94c0.07-0.05,0.15-0.09,0.22-0.14c0.17,0.37,0.34,0.73,0.51,1.1
		C233.98,160.74,234.01,160.72,234.01,160.72z"/>
	<path d="M149.6,180.09c-0.18-0.31-0.36-0.62-0.54-0.93c0.05-0.03,0.09-0.06,0.14-0.09c0.19,0.29,0.38,0.57,0.58,0.86
		C149.72,179.99,149.66,180.04,149.6,180.09z"/>
	<path d="M158.83,180.11c2.35,0.87,4.5,1.67,6.65,2.47c-0.05,0.14-0.1,0.28-0.15,0.42c-1.81-0.63-3.62-1.26-5.45-1.89
		c0.04,0.18,0.08,0.35,0.14,0.62c-0.39-0.15-0.71-0.27-1.07-0.4C158.92,180.97,158.88,180.64,158.83,180.11z"/>
	<path d="M180.58,183.34c-0.18,0.69-0.35,1.38-0.57,2.24c0.32-0.26,0.53-0.44,0.76-0.63c0.37,0.34,0.71,0.66,1.15,1.06
		c-0.42,0.05-0.77,0.09-1.1,0.14c-0.24,0.3-0.45,0.58-0.83,1.08c-0.1-1.01-0.18-1.79-0.25-2.46c0.34-0.54,0.61-0.97,0.87-1.4
		C180.59,183.36,180.58,183.34,180.58,183.34z"/>
	<path d="M158.82,181.85c1.31,0.51,2.62,1.03,3.93,1.54c-1.6,0.18-2.89-0.36-3.89-1.57C158.86,181.81,158.82,181.85,158.82,181.85z"
		/>
	<path d="M214.4,166.14c0.66-0.32,1.32-0.64,1.98-0.96c0.09,0.14,0.18,0.27,0.4,0.62c-0.83,0.16-1.58,0.31-2.33,0.46
		C214.44,166.22,214.42,166.18,214.4,166.14z"/>
	<path d="M187.43,183.99c-0.89,0.66-1.77,1.31-2.66,1.97c-0.04-0.06-0.09-0.12-0.13-0.18c0.63-0.6,1.27-1.19,1.97-1.85
		c0.19,0.02,0.52,0.05,0.85,0.08L187.43,183.99z"/>
	<path d="M187.45,184.01c0.98-0.62,1.96-1.24,2.93-1.86l-0.03-0.03c-0.97,0.62-1.95,1.24-2.93,1.87
		C187.43,183.99,187.45,184.01,187.45,184.01z"/>
	<path d="M211.17,165.54c1.22-0.57,2.43-1.14,3.65-1.7C213.61,164.4,212.39,164.97,211.17,165.54z"/>
	<path d="M186.29,180.15c-1,0.54-2,1.09-3,1.63c-0.04-0.07-0.07-0.14-0.11-0.2c1.01-0.55,2.02-1.1,3.04-1.65
		C186.24,180,186.27,180.08,186.29,180.15z"/>
	<path d="M196.33,175.92c-0.95,0.43-1.91,0.86-2.86,1.28c-0.03-0.07-0.07-0.14-0.1-0.2c0.96-0.43,1.92-0.86,2.88-1.29
		C196.28,175.78,196.3,175.85,196.33,175.92z"/>
	<path d="M203.16,173.93c0.58-0.38,1.17-0.76,1.75-1.14c0.04,0.06,0.09,0.12,0.13,0.17c-0.54,0.45-1.09,0.9-1.63,1.36
		C203.33,174.19,203.25,174.06,203.16,173.93z"/>
	<path d="M168.58,185.25c-0.75-0.35-1.5-0.7-2.26-1.05c0.04-0.09,0.08-0.18,0.12-0.27c0.77,0.33,1.53,0.66,2.3,0.99
		C168.69,185.03,168.64,185.14,168.58,185.25z"/>
	<path d="M208.5,170.74c-0.76,0.55-1.52,1.1-2.28,1.66c-0.07-0.12-0.14-0.23-0.21-0.35c0.84-0.43,1.67-0.86,2.51-1.28
		C208.53,170.76,208.5,170.74,208.5,170.74z"/>
	<path d="M177.71,187.72c-0.48,0-0.97,0-1.42,0c-0.1-0.43-0.17-0.72-0.25-1.08c0.32,0.07,0.64,0.14,0.96,0.21
		c-0.04,0.07-0.08,0.15-0.13,0.22c0.27,0.23,0.53,0.46,0.8,0.68C177.69,187.75,177.71,187.72,177.71,187.72z"/>
	<path d="M210.22,170.06c-0.57,0.23-1.15,0.45-1.72,0.68c0,0,0.02,0.03,0.02,0.02c0.38-0.41,0.76-0.82,1.05-1.13
		c0.31,0.21,0.49,0.34,0.67,0.46L210.22,170.06z"/>
	<path d="M208.79,166.85c0.81-0.45,1.63-0.9,2.44-1.35C210.41,165.95,209.6,166.4,208.79,166.85z"/>
	<path d="M190.71,181.14c-0.42,0.08-0.83,0.15-1.25,0.23c-0.07-0.1-0.14-0.21-0.21-0.31c0.41-0.25,0.82-0.5,1.14-0.7
		c-0.11,0.14-0.3,0.38-0.56,0.72c0.35-0.06,0.6-0.11,0.86-0.16C190.7,180.99,190.71,181.06,190.71,181.14z"/>
	<path d="M183.12,187.11c-0.53,0.04-1.05,0.09-1.58,0.13c0-0.07,0-0.14,0-0.21c0.73-0.18,1.46-0.37,2.28-0.58
		c-0.28,0.27-0.51,0.48-0.74,0.7C183.07,187.16,183.12,187.11,183.12,187.11z"/>
	<path d="M153.95,175.9c0.21,0.63,0.41,1.26,0.62,1.88c-0.02,0.07-0.03,0.15-0.05,0.22c-0.33-0.42-0.66-0.84-1.01-1.28
		c0.2-0.34,0.33-0.57,0.47-0.8L153.95,175.9z"/>
	<path d="M153.98,175.92c-0.31-0.39-0.62-0.78-0.92-1.17c0.06-0.05,0.11-0.11,0.17-0.16c0.33,0.31,0.67,0.62,0.99,0.95
		c0.02,0.02-0.17,0.23-0.26,0.35C153.95,175.9,153.98,175.92,153.98,175.92z"/>
	<path d="M183.07,185.29c0.43-0.08,0.85-0.15,1.28-0.23c0.03,0.07,0.05,0.13,0.08,0.2c-0.42,0.15-0.85,0.3-1.27,0.45
		C183.13,185.57,183.1,185.43,183.07,185.29z"/>
	<path d="M168.1,183.99c-0.54-0.25-1.09-0.5-1.63-0.75c0.04-0.09,0.08-0.17,0.12-0.26c0.54,0.25,1.08,0.51,1.62,0.76
		C168.17,183.83,168.13,183.91,168.1,183.99z"/>
	<path d="M224.59,158.35c0.34-0.33,0.69-0.65,1.03-0.98c0.04,0.04,0.08,0.08,0.12,0.12c-0.34,0.33-0.69,0.66-1.03,1
		C224.67,158.44,224.63,158.39,224.59,158.35z"/>
	<path d="M206.62,168.18c0.49-0.33,0.99-0.66,1.48-0.98C207.61,167.52,207.11,167.85,206.62,168.18z"/>
	<path d="M197.18,177.35c0.39-0.21,0.79-0.42,1.18-0.62c0.04,0.08,0.09,0.17,0.13,0.25c-0.39,0.2-0.78,0.39-1.17,0.59
		C197.28,177.5,197.23,177.43,197.18,177.35z"/>
	<path d="M184.75,183.2c-0.31,0.27-0.62,0.55-0.96,0.84c0.29-0.36,0.54-0.68,0.8-1.01C184.65,183.09,184.7,183.15,184.75,183.2z"/>
	<path d="M210.25,170.09c0.45-0.26,0.9-0.52,1.35-0.77c0.04,0.1,0.09,0.19,0.13,0.29c-0.5,0.15-1,0.31-1.5,0.46
		C210.22,170.06,210.25,170.09,210.25,170.09z"/>
	<path d="M193.61,180.31c-0.47,0.28-0.94,0.56-1.41,0.85c-0.05-0.1-0.1-0.21-0.15-0.31C192.58,180.66,193.1,180.48,193.61,180.31
		C193.62,180.31,193.61,180.31,193.61,180.31z"/>
	<path d="M158.96,175.59c-0.32-0.17-0.64-0.34-0.97-0.51c0.03-0.07,0.06-0.14,0.1-0.21c0.34,0.15,0.68,0.3,1.01,0.45
		C159.06,175.41,159.01,175.5,158.96,175.59z"/>
	<path d="M193.62,180.31c0.15-0.46,0.29-0.92,0.44-1.38c0.11,0.05,0.21,0.09,0.32,0.14C194.12,179.48,193.86,179.89,193.62,180.31
		C193.61,180.31,193.62,180.31,193.62,180.31z"/>
	<path d="M215.74,163.13c0.42-0.32,0.83-0.65,1.25-0.97C216.57,162.48,216.15,162.8,215.74,163.13z"/>
	<path d="M220.29,160.02c0.49-0.25,0.99-0.49,1.48-0.74C221.28,159.52,220.79,159.77,220.29,160.02z"/>
	<path d="M209.49,167.89c0.29-0.27,0.57-0.54,0.86-0.82c0.05,0.07,0.11,0.14,0.16,0.21c-0.33,0.22-0.65,0.43-0.98,0.65
		L209.49,167.89z"/>
	<path d="M190.39,182.16c0.3-0.28,0.59-0.56,0.89-0.84c0.06,0.11,0.13,0.22,0.19,0.34c-0.37,0.16-0.74,0.31-1.11,0.47
		C190.35,182.12,190.39,182.16,190.39,182.16z"/>
	<path d="M218.88,160.72c0.49-0.25,0.98-0.49,1.47-0.74C219.86,160.23,219.37,160.48,218.88,160.72z"/>
	<path d="M182.59,183.99c-0.16-0.19-0.32-0.39-0.52-0.62c0.21-0.08,0.31-0.14,0.32-0.13c0.16,0.19,0.31,0.38,0.46,0.58
		C182.77,183.88,182.68,183.94,182.59,183.99z"/>
	<path d="M157.57,176.35c-0.29-0.11-0.57-0.21-0.86-0.32c0.01-0.05,0.02-0.09,0.04-0.14c0.32,0.09,0.64,0.17,0.96,0.26
		C157.66,176.22,157.62,176.29,157.57,176.35z"/>
	<path d="M188.33,181.74c-0.23,0.19-0.46,0.38-0.63,0.52c0.11-0.2,0.27-0.47,0.42-0.74C188.19,181.6,188.26,181.67,188.33,181.74z"
		/>
	<path d="M224.86,157.2c0.41-0.27,0.83-0.55,1.24-0.82C225.69,156.66,225.28,156.93,224.86,157.2z"/>
	<path d="M175.7,189.78c-0.41-0.25-0.81-0.49-1.22-0.74C174.89,189.29,175.3,189.53,175.7,189.78z"/>
	<path d="M209.53,167.93c-0.32,0.25-0.63,0.49-0.95,0.74c-0.05-0.08-0.09-0.15-0.14-0.23c0.35-0.19,0.7-0.37,1.05-0.56
		C209.49,167.89,209.53,167.93,209.53,167.93z"/>
	<path d="M158.41,178.51c-0.24-0.22-0.48-0.43-0.72-0.65c0.05-0.06,0.1-0.11,0.15-0.17c0.24,0.2,0.49,0.41,0.73,0.61
		C158.52,178.37,158.47,178.44,158.41,178.51z"/>
	<path d="M190.32,177.52c-0.31,0.23-0.62,0.46-0.92,0.69c-0.04-0.08-0.08-0.15-0.12-0.23c0.36-0.15,0.71-0.29,1.07-0.44
		C190.34,177.54,190.32,177.52,190.32,177.52z"/>
	<path d="M191.08,191.9c-0.39-0.12-0.78-0.33-1.17-0.34c-0.42,0-0.83,0.2-1.25,0.31c-0.13-0.15-0.25-0.3-0.38-0.44
		c0.92-0.08,1.85-0.09,2.75-0.26c0.83-0.15,1.63-0.48,2.39-0.71c-0.07,0.08-0.24,0.25-0.62,0.66c2.45-0.25,4.62-0.47,6.8-0.69
		c0.01,0.11,0.02,0.21,0.03,0.32c-2.32,0.23-4.65,0.44-6.97,0.7C192.12,191.52,191.6,191.75,191.08,191.9z"/>
	<path d="M215.03,174.78c0.54-0.41,1.04-0.87,1.61-1.22c0.97-0.59,1.98-1.11,2.97-1.66c-0.87,0.6-1.71,1.22-2.6,1.78
		C216.38,174.08,215.7,174.41,215.03,174.78z"/>
	<path d="M206.87,179.58c0.56-0.43,1.08-0.94,1.69-1.27c0.78-0.42,1.63-0.7,2.45-1.04C209.64,178.04,208.25,178.81,206.87,179.58z"
		/>
	<path d="M227.24,178.19c0.77-1.1,1.53-2.19,2.3-3.29c0.11,0.08,0.21,0.16,0.32,0.24c-0.84,1.04-1.69,2.09-2.53,3.13L227.24,178.19z
		"/>
	<path d="M222.22,170.1c0.98-0.73,1.95-1.47,2.93-2.2C224.17,168.63,223.19,169.36,222.22,170.1z"/>
	<path d="M220.52,174.36c0.97-0.65,1.94-1.31,2.91-1.96c0.06,0.1,0.12,0.19,0.19,0.29c-1.01,0.58-2.02,1.17-3.02,1.75
		C220.6,174.44,220.52,174.36,220.52,174.36z"/>
	<path d="M194.42,188.58c1.02-0.69,2.05-1.39,3.07-2.08c0.08,0.13,0.15,0.25,0.23,0.38c-1.11,0.56-2.21,1.12-3.32,1.67
		C194.4,188.56,194.42,188.58,194.42,188.58z"/>
	<path d="M218.21,174.12c0.81-0.48,1.63-0.96,2.44-1.44c0.05,0.08,0.1,0.16,0.15,0.23c-0.81,0.47-1.61,0.94-2.42,1.4
		C218.33,174.25,218.27,174.18,218.21,174.12z"/>
	<path d="M197.93,187.53c0.88-0.42,1.76-0.83,2.64-1.25c0.04,0.1,0.08,0.2,0.12,0.3c-0.93,0.3-1.86,0.61-2.79,0.91L197.93,187.53z"
		/>
	<path d="M219.78,171.77c0.83-0.57,1.65-1.14,2.48-1.71C221.44,170.63,220.61,171.2,219.78,171.77z"/>
	<path d="M229.24,166.75c-0.15,0.34-0.3,0.69-0.43,0.99c-0.4,0.04-0.69,0.07-1.16,0.13c0.61-0.47,1.07-0.82,1.53-1.17
		C229.18,166.7,229.24,166.75,229.24,166.75z"/>
	<path d="M201.34,182.89c0.65-0.43,1.31-0.87,1.96-1.3C202.65,182.02,202,182.45,201.34,182.89z"/>
	<path d="M225.1,167.94c0.58-0.49,1.15-0.98,1.73-1.48C226.25,166.95,225.67,167.45,225.1,167.94z"/>
	<path d="M219.15,175.4c-0.49,0.4-0.98,0.8-1.47,1.21c-0.06-0.09-0.12-0.17-0.18-0.26c0.54-0.33,1.07-0.67,1.61-1
		C219.11,175.34,219.15,175.4,219.15,175.4z"/>
	<path d="M197.02,185.7c0.57-0.41,1.15-0.83,1.72-1.24C198.17,184.87,197.59,185.29,197.02,185.7z"/>
	<path d="M202,184.19c-0.47,0.26-0.94,0.53-1.41,0.79c-0.04-0.07-0.08-0.14-0.12-0.21c0.47-0.28,0.95-0.56,1.42-0.83
		C201.93,184.02,201.96,184.11,202,184.19z"/>
	<path d="M220.6,174.44c-0.48,0.32-0.96,0.64-1.44,0.96c0,0-0.05-0.06-0.05-0.06c0.47-0.33,0.95-0.66,1.42-0.98
		C220.52,174.36,220.6,174.44,220.6,174.44z"/>
	<path d="M195.47,188.89c-0.31,0.4-0.62,0.81-0.93,1.21c-0.08-0.07-0.16-0.15-0.24-0.22c0.4-0.32,0.79-0.65,1.19-0.97
		C195.48,188.91,195.47,188.89,195.47,188.89z"/>
	<path d="M192.98,189.54c0.48-0.32,0.96-0.64,1.44-0.96c0,0-0.02-0.02-0.02-0.02c-0.48,0.32-0.96,0.64-1.44,0.96L192.98,189.54z"/>
	<path d="M227.32,178.27c-0.33,0.41-0.67,0.82-1,1.23c-0.08-0.07-0.16-0.14-0.24-0.21c0.39-0.37,0.77-0.74,1.16-1.11
		C227.24,178.19,227.32,178.27,227.32,178.27z"/>
	<path d="M224.71,180.49c0.31-0.28,0.62-0.56,0.93-0.84c0.06,0.06,0.11,0.12,0.17,0.17c-0.3,0.28-0.61,0.56-0.91,0.83
		C224.84,180.6,224.78,180.54,224.71,180.49z"/>
	<path d="M223.13,171.23c-0.28,0.24-0.57,0.48-0.85,0.72c-0.04-0.05-0.08-0.1-0.12-0.14c0.28-0.25,0.55-0.5,0.83-0.74
		C223.03,171.12,223.08,171.17,223.13,171.23z"/>
	<path d="M198.69,184.5c0.42-0.26,0.83-0.52,1.25-0.79C199.52,183.97,199.11,184.23,198.69,184.5z"/>
	<path d="M198.51,185.99c0.33-0.2,0.66-0.39,0.99-0.59c0.04,0.07,0.08,0.14,0.12,0.21c-0.33,0.19-0.67,0.38-1,0.57
		C198.58,186.11,198.54,186.05,198.51,185.99z"/>
	<path d="M195.83,186.52c0.41-0.28,0.83-0.57,1.24-0.85C196.65,185.95,196.24,186.23,195.83,186.52z"/>
	<path d="M203.26,181.62c0.43-0.25,0.85-0.5,1.28-0.75C204.11,181.12,203.69,181.37,203.26,181.62z"/>
	<path d="M197.9,187.5c-0.37,0.27-0.73,0.55-1.1,0.82c0,0,0.02,0.03,0.02,0.03c0.37-0.27,0.75-0.54,1.12-0.81
		C197.93,187.53,197.9,187.5,197.9,187.5z"/>
	<path d="M195.48,188.91c0.45-0.19,0.89-0.38,1.34-0.57c0,0-0.02-0.03-0.02-0.03c-0.44,0.19-0.88,0.39-1.33,0.58
		C195.47,188.89,195.48,188.91,195.48,188.91z"/>
	<path d="M192.96,189.51c-0.31,0.25-0.62,0.5-0.93,0.75c-0.05-0.08-0.1-0.16-0.15-0.23c0.36-0.16,0.73-0.33,1.09-0.49
		C192.98,189.54,192.96,189.51,192.96,189.51z"/>
	<path d="M179.99,168.67c0-0.35,0-0.71,0-1.26c-1.22-0.84-2.5-1.72-3.68-2.54c1.45,0.09,2.71,0.82,3.72,2.09
		c0.13,0.16,0.46,0.17,0.7,0.24C180.48,167.69,180.23,168.18,179.99,168.67z"/>
	<path d="M187.81,163.61c-1.05,0.59-2.1,1.17-3.15,1.76c-0.04-0.07-0.08-0.15-0.13-0.22c1.05-0.58,2.1-1.17,3.15-1.75
		C187.73,163.47,187.77,163.54,187.81,163.61z"/>
	<path d="M226.44,141.16c-0.84,0.52-1.68,1.04-2.52,1.56c-0.06-0.12-0.13-0.24-0.19-0.35c0.9-0.4,1.8-0.8,2.7-1.2
		C226.43,141.17,226.44,141.16,226.44,141.16z"/>
	<path d="M206.9,146.67c0.69-0.36,1.39-0.73,2.08-1.09c0.04,0.08,0.09,0.16,0.13,0.25c-0.68,0.39-1.36,0.79-2.04,1.18
		C207.01,146.89,206.96,146.78,206.9,146.67z"/>
	<path d="M181.52,166.49c0.69-0.34,1.37-0.67,2.06-1.01c0.03,0.07,0.06,0.13,0.09,0.2c-0.67,0.34-1.34,0.67-2.01,1.01
		C181.62,166.62,181.57,166.56,181.52,166.49z"/>
	<path d="M205.44,151.97c0.47-0.18,0.94-0.37,1.4-0.55c0.03,0.07,0.06,0.14,0.09,0.2c-0.46,0.22-0.92,0.43-1.37,0.65
		C205.53,152.18,205.48,152.08,205.44,151.97z"/>
	<path d="M210.06,149.74c-0.49,0.3-0.98,0.59-1.46,0.89c-0.05-0.08-0.09-0.16-0.14-0.25c0.5-0.25,1-0.5,1.5-0.74
		C209.99,149.67,210.03,149.7,210.06,149.74z"/>
	<path d="M199.79,144.4c0.53-0.17,1.06-0.35,1.59-0.52c0.03,0.08,0.05,0.16,0.08,0.24c-0.53,0.19-1.05,0.38-1.58,0.57
		C199.85,144.59,199.82,144.5,199.79,144.4z"/>
	<path d="M187.19,162.75c0.5-0.36,1-0.72,1.5-1.08C188.19,162.03,187.69,162.39,187.19,162.75z"/>
	<path d="M180.71,166.92c-0.17-0.25-0.33-0.49-0.55-0.82c0.33-0.04,0.55-0.06,0.77-0.09C180.86,166.31,180.78,166.62,180.71,166.92z
		"/>
	<path d="M198.18,151.86c-0.28,0.13-0.55,0.26-0.83,0.39c-0.04-0.08-0.08-0.16-0.11-0.25c0.28-0.13,0.56-0.25,0.83-0.38
		C198.1,151.7,198.14,151.78,198.18,151.86z"/>
	<path d="M185.5,163.62c0.41-0.29,0.82-0.58,1.24-0.87C186.32,163.03,185.91,163.33,185.5,163.62z"/>
	<path d="M176.18,177.6c-0.27-0.22-0.53-0.44-0.93-0.76c-2.41-0.95-4.97-1.96-7.57-2.98c0,0.11,0,0.31,0,0.5
		c-0.4-0.3-0.79-0.6-1.18-0.9c-0.06,0.12-0.13,0.24-0.19,0.36c0.46,0.17,0.92,0.35,1.37,0.52c0.5,0.3,0.99,0.59,1.49,0.89
		c-0.06,0.11-0.13,0.22-0.19,0.33c-1.26-0.59-2.49-1.24-3.77-1.76c-2.26-0.92-4.56-1.76-6.84-2.64c-0.39-0.15-0.76-0.36-1.14-0.54
		c-1.48-0.68-2.96-1.36-4.42-2.06c-0.1-0.05-0.1-0.28-0.15-0.42c1.99,0.72,3.97,1.43,5.94,2.14c-0.01-0.04-0.04-0.23-0.13-0.84
		c1.46,0.82,2.63,1.49,3.82,2.13c0.2,0.11,0.45,0.13,0.68,0.2c0.67,0.44,1.35,0.88,2.02,1.33c0.05-0.08,0.1-0.15,0.15-0.23
		c-0.16-0.21-0.31-0.42-0.47-0.63c2.94,1.04,5.89,2.04,8.81,3.13c1.92,0.72,3.8,1.55,5.7,2.34c0.16,0.07,0.27,0.23,0.4,0.34
		c-0.68,0.06-1.32,0.12-1.96,0.18C177.11,178.02,176.64,177.81,176.18,177.6z M159.93,170.74c-0.04,0.1-0.08,0.21-0.12,0.31
		c0.42,0.17,0.85,0.33,1.27,0.5c0.03-0.09,0.07-0.18,0.1-0.26C160.77,171.1,160.35,170.92,159.93,170.74z"/>
	<path d="M182.16,175.21c0.35-0.16,0.8-0.24,1.04-0.5c1.38-1.46,3.17-1.91,5.04-2.3c0.65-0.13,1.21-0.68,1.82-1.04
		c0.5-0.3,0.99-0.61,1.63-0.67c-0.39,0.32-0.77,0.64-1.16,0.96c0.02,0.06,0.05,0.11,0.07,0.17c0.81-0.25,1.61-0.51,2.42-0.76
		c0.03,0.1,0.06,0.2,0.09,0.3c-2.42,0.71-4.84,1.41-7.4,2.16c0.29,0.14,0.46,0.23,0.64,0.31c-0.19,0.98-2.14-1.13-1.76,0.7
		c-0.52,0.25-1,0.47-1.48,0.7c0.05,0.11,0.1,0.22,0.14,0.32c-0.41,0-0.83,0-1.24,0C182.06,175.44,182.11,175.32,182.16,175.21z"/>
	<path d="M179.79,179.7c-1.22-0.26-2.44-0.51-3.67-0.77c-0.19-0.21-0.39-0.41-0.55-0.58c0.25-0.1,0.54-0.22,0.83-0.34
		c0.49,0.18,0.97,0.35,1.46,0.53C178.51,178.93,179.15,179.32,179.79,179.7z"/>
	<path d="M187.55,171.71c-0.69,0.14-1.37,0.27-2.06,0.41c-0.05-0.16-0.11-0.31-0.16-0.47c1.12-0.55,2.24-1.09,3.36-1.64
		c0.07,0.1,0.15,0.19,0.22,0.28c-0.39,0.37-0.78,0.74-1.17,1.11c0.06-0.18,0.12-0.35,0.27-0.79c-0.68,0.37-1.15,0.62-1.62,0.88
		c0.02,0.07,0.04,0.14,0.07,0.21C186.82,171.71,187.18,171.71,187.55,171.71z"/>
	<path d="M201.73,162.03c1.47-0.63,2.89-1.46,4.46-1.76c0.05,0.15,0.1,0.3,0.15,0.46c-1.54,0.43-3.08,0.87-4.62,1.3
		C201.72,162.03,201.73,162.03,201.73,162.03z"/>
	<path d="M182.16,175.21c-0.05,0.12-0.1,0.23-0.15,0.35c-0.57,0.43-1.13,0.86-1.96,1.5c0.33-0.85,0.58-1.51,0.95-2.46
		c0.15,0.51,0.21,0.72,0.27,0.92C181.57,175.41,181.87,175.31,182.16,175.21z"/>
	<path d="M205.88,162.16c-1.28,0.73-2.56,1.46-3.84,2.19c-0.05-0.08-0.09-0.16-0.14-0.24c1.27-0.74,2.54-1.48,3.82-2.23
		C205.77,161.97,205.82,162.07,205.88,162.16z"/>
	<path d="M196.43,165.41c0.73-0.79,1.46-1.59,2.19-2.38c0.08,0.07,0.16,0.15,0.24,0.22c-0.72,0.82-1.45,1.64-2.17,2.46
		C196.61,165.6,196.52,165.5,196.43,165.41z"/>
	<path d="M210.47,156.29c1.05-0.51,2.1-1.02,3.15-1.52c0.27-0.01,0.54-0.03,0.8-0.04c0.01,0.05,0.02,0.09,0.03,0.14
		C213.12,155.34,211.79,155.82,210.47,156.29z"/>
	<path d="M221.26,149.29c0.81-0.51,1.63-1.03,2.44-1.54c-0.52,0.49-1.05,0.97-1.57,1.46c-0.11,0-0.21-0.01-0.32-0.01
		C221.63,149.22,221.45,149.25,221.26,149.29z"/>
	<path d="M224.29,149.85c0.54-0.45,1.07-0.9,1.61-1.35c-0.05-0.05-0.1-0.1-0.15-0.15c-0.49,0.48-0.98,0.96-1.48,1.44
		C224.27,149.82,224.28,149.83,224.29,149.85z"/>
	<path d="M155.16,164.27c0.64,0.41,1.28,0.82,1.92,1.24c-0.05,0.08-0.1,0.15-0.15,0.23c-0.64-0.4-1.29-0.8-1.93-1.21
		C155.05,164.44,155.1,164.36,155.16,164.27z"/>
	<path d="M193.75,166.16c-0.64,0.4-1.28,0.8-1.91,1.2c-0.05-0.07-0.09-0.14-0.14-0.21c0.62-0.42,1.25-0.85,1.87-1.27
		C193.62,165.97,193.68,166.07,193.75,166.16z"/>
	<path d="M206.64,161.9c0.31-0.33,0.62-0.67,0.94-1c0.1,0.09,0.19,0.18,0.29,0.27c-0.31,0.33-0.63,0.66-0.94,0.99
		C206.82,162.07,206.73,161.99,206.64,161.9z"/>
	<path d="M166.08,167.57c0.44,0.15,0.88,0.3,1.31,0.45c-0.04,0.12-0.08,0.25-0.12,0.37c-0.43-0.13-0.87-0.26-1.3-0.39
		C166.01,167.86,166.04,167.71,166.08,167.57z"/>
	<path d="M196.49,167.96c0.69-0.27,1.37-0.54,2.06-0.8c0.03,0.08,0.06,0.16,0.09,0.24c-0.69,0.26-1.38,0.52-2.07,0.78
		C196.54,168.11,196.52,168.03,196.49,167.96z"/>
	<path d="M223.65,147.78c0.58-0.33,1.15-0.66,1.73-0.99c-0.35,0.41-0.7,0.81-0.98,1.15C224.11,147.87,223.88,147.82,223.65,147.78z"
		/>
	<path d="M178.99,176.54c0.14-0.59,0.27-1.18,0.41-1.77c0.05,0.01,0.1,0.02,0.16,0.03c-0.1,0.61-0.2,1.23-0.31,1.84
		C179.17,176.6,179.08,176.57,178.99,176.54z"/>
	<path d="M152.62,161.87c0.4,0.18,0.79,0.35,1.19,0.53c-0.04,0.1-0.09,0.2-0.13,0.3c-0.4-0.17-0.8-0.33-1.2-0.5
		C152.53,162.08,152.58,161.98,152.62,161.87z"/>
	<path d="M198.73,164.03c0.41-0.33,0.82-0.65,1.23-0.98c0.06,0.07,0.12,0.14,0.18,0.22c-0.41,0.32-0.83,0.65-1.24,0.97
		C198.84,164.17,198.78,164.1,198.73,164.03z"/>
	<path d="M194.88,165.8c0.31-0.33,0.62-0.67,0.93-1c0.06,0.05,0.11,0.1,0.17,0.15c-0.27,0.36-0.54,0.73-0.81,1.09
		C195.07,165.96,194.98,165.88,194.88,165.8z"/>
	<path d="M190.45,168.92c0.35-0.25,0.7-0.49,1.04-0.74c0.05,0.05,0.09,0.11,0.14,0.16c-0.32,0.3-0.63,0.6-0.95,0.9
		C190.6,169.14,190.53,169.03,190.45,168.92z"/>
	<path d="M218.89,154.52c-0.51,0.21-1.02,0.42-1.54,0.64c-0.03-0.14-0.06-0.28-0.09-0.41c0.55-0.06,1.11-0.12,1.66-0.18
		L218.89,154.52z"/>
	<path d="M184.27,171.86c-0.2,0.18-0.4,0.37-0.6,0.55c-0.08-0.08-0.15-0.15-0.23-0.23c0.19-0.18,0.39-0.36,0.58-0.55
		C184.11,171.71,184.19,171.78,184.27,171.86z"/>
	<path d="M211.15,158.61c0.5-0.17,0.99-0.35,1.49-0.52c0.02,0.05,0.04,0.1,0.06,0.16c-0.47,0.19-0.95,0.37-1.42,0.56
		C211.23,158.74,211.19,158.68,211.15,158.61z"/>
	<path d="M219.31,152.01c-0.39,0.27-0.79,0.55-1.18,0.82c-0.05-0.08-0.11-0.15-0.16-0.23c0.4-0.27,0.79-0.54,1.19-0.82
		C219.2,151.86,219.26,151.94,219.31,152.01z"/>
	<path d="M167.94,170.11c0.32,0.2,0.64,0.41,0.96,0.61c-0.05,0.09-0.11,0.18-0.16,0.26c-0.33-0.2-0.65-0.39-0.98-0.59
		C167.82,170.3,167.88,170.21,167.94,170.11z"/>
	<path d="M181.38,174.17c0.26-0.29,0.51-0.58,0.77-0.87c0.06,0.06,0.13,0.11,0.19,0.17c-0.3,0.25-0.59,0.5-0.89,0.75
		C181.42,174.21,181.4,174.19,181.38,174.17z"/>
	<path d="M163.2,166.2c0.4,0.15,0.81,0.29,1.21,0.44c-0.03,0.08-0.06,0.16-0.08,0.23c-0.4-0.16-0.8-0.32-1.2-0.47
		C163.16,166.33,163.18,166.26,163.2,166.2z"/>
	<path d="M196.83,166.71c-0.22,0.2-0.45,0.39-0.67,0.59c-0.07-0.08-0.14-0.16-0.21-0.24c0.22-0.2,0.44-0.4,0.66-0.6
		C196.68,166.55,196.75,166.63,196.83,166.71z"/>
	<path d="M186.97,169.72c-0.22,0.14-0.44,0.27-0.66,0.41c-0.04-0.06-0.08-0.12-0.12-0.18c0.22-0.15,0.44-0.31,0.66-0.46
		C186.89,169.56,186.93,169.64,186.97,169.72z"/>
	<path d="M161.27,167.46c-0.39-0.22-0.78-0.43-1.17-0.65c0.04-0.08,0.08-0.16,0.13-0.24c0.41,0.21,0.81,0.43,1.22,0.64
		C161.39,167.29,161.33,167.37,161.27,167.46z"/>
	<path d="M207.95,158.67c0.33-0.23,0.66-0.47,0.99-0.7c0.05,0.07,0.09,0.14,0.14,0.2c-0.33,0.24-0.66,0.49-0.99,0.73
		C208.04,158.83,207.99,158.75,207.95,158.67z"/>
	<path d="M204.48,159.76c0.34-0.3,0.68-0.59,1.02-0.89c0.15-0.03,0.3-0.05,0.44-0.08C205.46,159.12,204.97,159.44,204.48,159.76z"/>
	<path d="M169.38,169.26c-0.29-0.13-0.59-0.26-0.88-0.39c0.05-0.1,0.09-0.19,0.14-0.29c0.29,0.15,0.57,0.3,0.86,0.45
		C169.46,169.11,169.42,169.19,169.38,169.26z"/>
	<path d="M221.77,151.91c-0.22,0.19-0.44,0.38-0.66,0.58c-0.04-0.04-0.08-0.08-0.13-0.13c0.24-0.18,0.48-0.37,0.73-0.55
		C221.73,151.85,221.75,151.88,221.77,151.91z"/>
	<path d="M156.51,164.03c-0.32-0.15-0.64-0.3-0.96-0.45c0.04-0.09,0.08-0.17,0.12-0.26c0.32,0.15,0.64,0.3,0.97,0.45
		C156.59,163.85,156.55,163.94,156.51,164.03z"/>
	<path d="M153,165.14c-0.22-0.19-0.44-0.38-0.66-0.57c0.06-0.07,0.11-0.14,0.17-0.2c0.23,0.18,0.45,0.36,0.68,0.54
		C153.13,164.99,153.06,165.07,153,165.14z"/>
	<path d="M192.51,168.49c0.34-0.2,0.68-0.41,1.02-0.61c0.04,0.07,0.09,0.13,0.13,0.2c-0.33,0.22-0.67,0.45-1,0.67
		C192.61,168.66,192.56,168.58,192.51,168.49z"/>
	<path d="M175.29,172.97c0.26,0.19,0.53,0.37,0.79,0.56c-0.04,0.06-0.09,0.13-0.13,0.19c-0.26-0.19-0.53-0.37-0.79-0.56
		C175.2,173.09,175.25,173.03,175.29,172.97z"/>
	<path d="M213.19,156.85c-0.2,0.19-0.41,0.37-0.61,0.56c-0.09-0.1-0.17-0.19-0.26-0.29c0.21-0.18,0.42-0.36,0.63-0.53
		C213.03,156.67,213.11,156.76,213.19,156.85z"/>
	<path d="M172.16,170.26c0.31,0.15,0.63,0.3,0.94,0.44c-0.03,0.06-0.05,0.12-0.08,0.17c-0.31-0.15-0.62-0.3-0.94-0.45
		C172.11,170.37,172.13,170.32,172.16,170.26z"/>
	<path d="M202.34,160.47c-0.12,0.15-0.24,0.3-0.36,0.45c-0.37,0.14-0.74,0.28-1.12,0.42C201.36,161.05,201.85,160.76,202.34,160.47z
		"/>
	<path d="M218.92,154.56c0.32-0.21,0.63-0.43,0.95-0.64c0.04,0.09,0.08,0.17,0.12,0.26c-0.37,0.11-0.74,0.23-1.11,0.34
		C218.89,154.52,218.92,154.56,218.92,154.56z"/>
	<path d="M221.82,149.19c0.11,0,0.21,0.01,0.32,0.01c-0.19,0.27-0.37,0.53-0.56,0.8c-0.06-0.03-0.11-0.07-0.17-0.1
		C221.54,149.66,221.68,149.42,221.82,149.19z"/>
	<path d="M158.15,165.02c0.24,0.14,0.48,0.29,0.72,0.43c-0.03,0.06-0.06,0.13-0.09,0.19c-0.27-0.12-0.55-0.23-0.82-0.35
		C158.02,165.2,158.08,165.11,158.15,165.02z"/>
	<path d="M201.72,162.03c-0.17,0.24-0.34,0.48-0.51,0.73c-0.06-0.05-0.12-0.1-0.18-0.15c0.24-0.19,0.47-0.38,0.71-0.57
		C201.73,162.03,201.72,162.03,201.72,162.03z"/>
	<path d="M182.31,172.38c-0.22,0.18-0.45,0.36-0.67,0.54c-0.03-0.04-0.06-0.08-0.09-0.11c0.21-0.19,0.42-0.38,0.64-0.57
		C182.23,172.29,182.27,172.33,182.31,172.38z"/>
	<path d="M152.55,163.48c0.23,0.08,0.46,0.15,0.69,0.23c-0.02,0.07-0.03,0.14-0.05,0.21c-0.24-0.06-0.47-0.11-0.71-0.17
		C152.5,163.65,152.53,163.56,152.55,163.48z"/>
	<path d="M177.74,176.06c-0.18-0.19-0.36-0.37-0.7-0.73c0.52,0.18,0.79,0.28,1.06,0.37C177.98,175.82,177.86,175.94,177.74,176.06z"
		/>
	<path d="M171.66,162.03c1.36,0.54,2.72,1.08,4.09,1.62c-0.04,0.11-0.09,0.22-0.13,0.33c-1.37-0.57-2.73-1.14-4.1-1.71
		C171.57,162.19,171.61,162.11,171.66,162.03z"/>
	<path d="M161.97,157.83c0.84,0.5,1.68,1,2.52,1.5c-0.03,0.06-0.06,0.13-0.09,0.19c-1.2-0.56-2.41-1.12-3.61-1.67
		c0.03-0.07,0.06-0.15,0.09-0.22c0.37,0.07,0.74,0.15,1.12,0.22C162,157.85,161.97,157.83,161.97,157.83z"/>
	<path d="M155.65,155.25c-0.38-0.13-0.76-0.25-1.14-0.38c0.3,0.34,0.59,0.69,0.89,1.03c-0.23-0.1-0.46-0.2-0.69-0.31
		c0.08-0.21,0.14-0.39,0.22-0.61c0.29,0.1,0.58,0.19,0.86,0.29C155.74,155.26,155.7,155.25,155.65,155.25z"/>
	<path d="M174.83,164.6c-0.54-0.19-1.08-0.38-1.61-0.57c0.02-0.06,0.04-0.11,0.05-0.17c0.56,0.18,1.13,0.36,1.69,0.54
		C174.92,164.47,174.88,164.54,174.83,164.6z"/>
	<path d="M171.59,153.22c0.41-0.2,0.82-0.41,1.24-0.61c0.05,0.1,0.11,0.21,0.16,0.31c-0.41,0.2-0.83,0.41-1.24,0.61
		C171.69,153.43,171.64,153.32,171.59,153.22z"/>
	<path d="M187.26,157.77c-0.33,0.19-0.65,0.38-0.98,0.57c-0.04-0.07-0.08-0.14-0.12-0.21c0.32-0.2,0.64-0.39,0.97-0.59
		C187.18,157.62,187.22,157.7,187.26,157.77z"/>
	<path d="M203.27,131.57c-0.52,0.09-1.04,0.18-1.57,0.26c-0.02-0.09-0.04-0.18-0.06-0.27c0.52-0.13,1.04-0.25,1.56-0.38
		C203.23,131.32,203.25,131.45,203.27,131.57z"/>
	<path d="M158.17,172.24c-0.33-0.17-0.67-0.33-1-0.5c0.16-0.07,0.31-0.14,0.47-0.21c0.02-0.12,0.04-0.24,0.05-0.36
		c1.84,0.76,3.69,1.52,5.53,2.28c-1.58-0.5-3.16-1.01-4.74-1.5C158.42,171.94,158.28,172.14,158.17,172.24z"/>
	<path d="M172.48,177.07c-0.53-0.12-1.06-0.24-1.59-0.36c0.01-0.06,0.03-0.12,0.04-0.19c0.53,0.12,1.06,0.23,1.59,0.35
		C172.51,176.94,172.49,177,172.48,177.07z"/>
	<path d="M157.22,171.78c-0.49-0.25-0.99-0.5-1.48-0.74C156.23,171.28,156.73,171.53,157.22,171.78z"/>
	<path d="M164.41,174.29c-0.41-0.29-0.82-0.58-1.23-0.87C163.59,173.71,164,174,164.41,174.29z"/>
	<path d="M163.91,164.09c1.06,0.36,2.12,0.72,3.18,1.08c-0.03,0.09-0.06,0.18-0.09,0.27c-0.84-0.22-1.67-0.45-2.6-0.69
		c-0.12-0.17-0.3-0.43-0.47-0.69L163.91,164.09z"/>
	<path d="M163.94,164.06c-0.69-0.21-1.37-0.42-2.06-0.63c0.06-0.13,0.12-0.27,0.17-0.4c0.62,0.35,1.24,0.7,1.86,1.05
		C163.91,164.09,163.94,164.06,163.94,164.06z"/>
	<path d="M205.39,158.74c-1.03,0.59-2.05,1.17-3.08,1.76c0.03-0.23-0.02-0.6,0.11-0.67c1.21-0.7,2.46-1.35,3.79-1.84
		C205.94,158.24,205.67,158.49,205.39,158.74z"/>
	<path d="M162.05,173.85c-0.41-0.18-0.82-0.37-1.22-0.55c0.03-0.07,0.05-0.14,0.08-0.21c0.41,0.16,0.83,0.32,1.24,0.47
		C162.11,173.65,162.08,173.75,162.05,173.85z"/>
</g>
</svg>
